<svg xmlns="http://www.w3.org/2000/svg" xmlns:xlink="http://www.w3.org/1999/xlink" viewBox="0 0 512 512"><defs><linearGradient id="b" x1="99.45" y1="30.68" x2="232.64" y2="261.37" gradientUnits="userSpaceOnUse"><stop offset="0" stop-color="#f3f7fe"/><stop offset=".45" stop-color="#f3f7fe"/><stop offset="1" stop-color="#deeafb"/></linearGradient><linearGradient id="a" x1="11.38" y1="5.93" x2="32.82" y2="43.07" gradientUnits="userSpaceOnUse"><stop offset="0" stop-color="#86c3db"/><stop offset=".45" stop-color="#86c3db"/><stop offset="1" stop-color="#5eafcf"/></linearGradient><linearGradient id="f" x1="67.38" y1="5.93" x2="88.82" y2="43.07" xlink:href="#a"/><linearGradient id="i" x1="123.38" y1="5.93" x2="144.82" y2="43.07" xlink:href="#a"/><symbol id="l" viewBox="0 0 350 222"><path d="M291 107c-.85 0-1.68.09-2.53.13A83.9 83.9 0 0 0 135.6 42.92 55.91 55.91 0 0 0 51 91a56.6 56.6 0 0 0 .8 9.08A60 60 0 0 0 63 219c1.35 0 2.67-.11 4-.2v.2h224a56 56 0 0 0 0-112Z" stroke="#e6effc" stroke-miterlimit="10" stroke-width="6" fill="url(#b)"/></symbol><symbol id="m" viewBox="0 0 156.2 49" overflow="visible"><g><path d="m41.67 31-5.78-3.3a13.74 13.74 0 0 0 0-6.47L41.67 18a4 4 0 0 0 1.49-5.46A4.08 4.08 0 0 0 37.62 11l-5.79 3.3a13.6 13.6 0 0 0-2.64-2 13.8 13.8 0 0 0-3-1.28V4.5a4.05 4.05 0 0 0-8.1 0v6.6a14.25 14.25 0 0 0-5.69 3.23L6.58 11A4.08 4.08 0 0 0 1 12.5 4 4 0 0 0 2.53 18l5.78 3.3a13.74 13.74 0 0 0 0 6.47L2.53 31A4 4 0 0 0 1 36.5a4.08 4.08 0 0 0 3.52 2 4 4 0 0 0 2-.54l5.79-3.3a13.6 13.6 0 0 0 2.64 2 13.8 13.8 0 0 0 3 1.27v6.57a4.05 4.05 0 0 0 8.1 0v-6.61a14.2 14.2 0 0 0 5.68-3.23L37.62 38a4 4 0 0 0 2 .54 4.08 4.08 0 0 0 3.52-2A4 4 0 0 0 41.67 31Zm-22.61-1.3a6 6 0 0 1-2.22-8.2 6.1 6.1 0 0 1 5.27-3 6.16 6.16 0 0 1 3 .8 6 6 0 0 1 2.22 8.2 6.12 6.12 0 0 1-8.27 2.2Z" stroke="#86c3db" stroke-miterlimit="10" fill="url(#a)" opacity="0"><animateTransform attributeName="transform" additive="sum" type="rotate" values="0 24 24; 360 24 24" dur="6s" repeatCount="indefinite"/><animate id="d" attributeName="opacity" values="0; 1; 1; 0" begin="0s; d.end+1s" dur="2s" keyTimes="0; .17; .83; 1"/></path><animateTransform id="e" attributeName="transform" additive="sum" type="translate" values="0 -36; 0 92;" begin="0s; e.end+1s" dur="2s"/></g><g><path d="m97.67 31-5.78-3.3a13.74 13.74 0 0 0 0-6.47L97.67 18a4 4 0 0 0 1.49-5.46A4.08 4.08 0 0 0 93.62 11l-5.79 3.3a13.6 13.6 0 0 0-2.64-2 13.8 13.8 0 0 0-3-1.28V4.5a4.05 4.05 0 0 0-8.1 0v6.6a14.25 14.25 0 0 0-5.69 3.23L62.58 11A4.08 4.08 0 0 0 57 12.5a4 4 0 0 0 1.53 5.5l5.78 3.3a13.74 13.74 0 0 0 0 6.47L58.53 31A4 4 0 0 0 57 36.5a4.08 4.08 0 0 0 3.52 2 4 4 0 0 0 2-.54l5.79-3.3a13.6 13.6 0 0 0 2.64 2 13.8 13.8 0 0 0 3 1.27v6.57a4.05 4.05 0 0 0 8.1 0v-6.61a14.2 14.2 0 0 0 5.68-3.23L93.62 38a4 4 0 0 0 2 .54 4.08 4.08 0 0 0 3.52-2A4 4 0 0 0 97.67 31Zm-22.61-1.3a6 6 0 0 1-2.22-8.2 6.1 6.1 0 0 1 5.27-3 6.16 6.16 0 0 1 3 .8 6 6 0 0 1 2.22 8.2 6.12 6.12 0 0 1-8.27 2.2Z" stroke="#86c3db" stroke-miterlimit="10" fill="url(#f)" opacity="0"><animateTransform attributeName="transform" additive="sum" type="rotate" values="0 80 24; 360 80 24" dur="6s" repeatCount="indefinite"/><animate id="g" attributeName="opacity" values="0; 1; 1; 0" begin="-.83s; g.end+1s" dur="2s" keyTimes="0; .17; .83; 1"/></path><animateTransform id="h" attributeName="transform" additive="sum" type="translate" values="0 -36; 0 92;" begin="-.83s; h.end+1s" dur="2s"/></g><g><path d="m153.67 31-5.78-3.3a13.74 13.74 0 0 0 0-6.47l5.78-3.23a4 4 0 0 0 1.49-5.46 4.08 4.08 0 0 0-5.54-1.54l-5.79 3.3a13.6 13.6 0 0 0-2.64-2 13.8 13.8 0 0 0-3-1.28V4.5a4.05 4.05 0 0 0-8.1 0v6.6a14.25 14.25 0 0 0-5.69 3.23L118.58 11a4.08 4.08 0 0 0-5.58 1.5 4 4 0 0 0 1.53 5.5l5.78 3.3a13.74 13.74 0 0 0 0 6.47L114.53 31a4 4 0 0 0-1.53 5.5 4.08 4.08 0 0 0 3.52 2 4 4 0 0 0 2-.54l5.79-3.3a13.6 13.6 0 0 0 2.64 2 13.8 13.8 0 0 0 3 1.27v6.57a4.05 4.05 0 0 0 8.1 0v-6.61a14.2 14.2 0 0 0 5.68-3.23l5.79 3.3a4 4 0 0 0 2 .54 4.08 4.08 0 0 0 3.52-2 4 4 0 0 0-1.37-5.5Zm-22.61-1.3a6 6 0 0 1-2.22-8.2 6.1 6.1 0 0 1 5.27-3 6.16 6.16 0 0 1 3 .8 6 6 0 0 1 2.22 8.2 6.12 6.12 0 0 1-8.27 2.2Z" stroke="#86c3db" stroke-miterlimit="10" fill="url(#i)" opacity="0"><animateTransform attributeName="transform" additive="sum" type="rotate" values="0 136 24; 360 136 24" dur="6s" repeatCount="indefinite"/><animate id="j" attributeName="opacity" values="0; 1; 1; 0" begin=".83s; j.end+1s" dur="2s" keyTimes="0; .17; .83; 1"/></path><animateTransform id="k" attributeName="transform" additive="sum" type="translate" values="0 -36; 0 92;" begin=".83s; k.end+1s" dur="2s"/></g></symbol></defs><use width="350" height="222" transform="translate(81 145)" xlink:href="#l"/><use width="156.2" height="49" transform="translate(177.9 337.5)" xlink:href="#m"/></svg>