<svg xmlns="http://www.w3.org/2000/svg" fill="none" viewBox="0 0 128 128"><g clip-path="url(#a)"><mask id="b" width="128" height="128" x="0" y="0" maskUnits="userSpaceOnUse" style="mask-type:alpha"><path fill="#000" d="M128 0H0v128h64V85c0-11.598 9.402-21 21-21h43z"/></mask><g mask="url(#b)"><circle cx="64" cy="64" r="19.5" fill="url(#c)" stroke="#f8af18"/><g><path fill="#f8af18" d="M61 19a3 3 0 1 1 6 0v14a3 3 0 0 1-6 0zm32.699 11.059A3 3 0 1 1 97.94 34.3l-9.9 9.9a3 3 0 1 1-4.242-4.243zM109 61a3 3 0 1 1 0 6H95a3 3 0 1 1 0-6zM97.941 93.699a3 3 0 1 1-4.243 4.242l-9.899-9.9a3 3 0 1 1 4.243-4.242zM61 95a3 3 0 1 1 6 0v14a3 3 0 1 1-6 0zM39.958 83.799a3 3 0 1 1 4.243 4.243l-9.9 9.9a3 3 0 1 1-4.242-4.243zM33 61a3 3 0 1 1 0 6H19a3 3 0 0 1 0-6zm11.201-21.042a3 3 0 1 1-4.243 4.243l-9.9-9.9a3 3 0 1 1 4.243-4.242z"/><animateTransform attributeName="transform" begin="0s" dur="15s" repeatCount="indefinite" type="rotate" values="0 64.0 64.0;360 64.0 64.0"/></g><path stroke="#f8af18" d="M63.5 83.5c.536-11.47 8.256-19.669 20-20"/></g><path fill="#202939" d="M87.606 97.414q-2.646 0-4.068-1.242t-1.422-3.564v-8.424h3.366v8.442q0 2.034 2.142 2.034 2.124 0 2.124-2.034v-8.442h3.366v8.424q0 2.34-1.422 3.582-1.422 1.224-4.086 1.224m13.92-7.992 1.494-5.238h3.42L102.3 97h-3.564l-4.14-12.816h3.456l1.512 5.22.99 4.032z"/></g><defs><linearGradient id="c" x1="64" x2="64" y1="44" y2="84" gradientUnits="userSpaceOnUse"><stop stop-color="#fbbf24"/><stop offset="1" stop-color="#f8af18"/></linearGradient><clipPath id="a"><path fill="#fff" d="M0 0h128v128H0z"/></clipPath></defs></svg>