<svg xmlns="http://www.w3.org/2000/svg" xmlns:xlink="http://www.w3.org/1999/xlink" width="200" zoomAndPan="magnify" viewBox="0 0 150 48" height="54" preserveAspectRatio="xMidYMid meet" version="1.0"><defs><g/><clipPath id="3a9abef138"><path d="M 1.5 1.5 L 148.570312 1.5 L 148.570312 39 L 1.5 39 Z M 1.5 1.5 " clip-rule="nonzero"/></clipPath><clipPath id="867abd8a74"><path d="M 3.75 1.5 L 146.25 1.5 C 146.847656 1.5 147.417969 1.738281 147.839844 2.160156 C 148.261719 2.582031 148.5 3.152344 148.5 3.75 L 148.5 36.75 C 148.5 37.347656 148.261719 37.917969 147.839844 38.339844 C 147.417969 38.761719 146.847656 39 146.25 39 L 3.75 39 C 3.152344 39 2.582031 38.761719 2.160156 38.339844 C 1.738281 37.917969 1.5 37.347656 1.5 36.75 L 1.5 3.75 C 1.5 3.152344 1.738281 2.582031 2.160156 2.160156 C 2.582031 1.738281 3.152344 1.5 3.75 1.5 Z M 3.75 1.5 " clip-rule="nonzero"/></clipPath><clipPath id="4185fbf149"><path d="M 0.5 0.5 L 147.558594 0.5 L 147.558594 38 L 0.5 38 Z M 0.5 0.5 " clip-rule="nonzero"/></clipPath><clipPath id="a84fac36d7"><path d="M 2.75 0.5 L 145.25 0.5 C 145.847656 0.5 146.417969 0.738281 146.839844 1.160156 C 147.261719 1.582031 147.5 2.152344 147.5 2.75 L 147.5 35.75 C 147.5 36.347656 147.261719 36.917969 146.839844 37.339844 C 146.417969 37.761719 145.847656 38 145.25 38 L 2.75 38 C 2.152344 38 1.582031 37.761719 1.160156 37.339844 C 0.738281 36.917969 0.5 36.347656 0.5 35.75 L 0.5 2.75 C 0.5 2.152344 0.738281 1.582031 1.160156 1.160156 C 1.582031 0.738281 2.152344 0.5 2.75 0.5 Z M 2.75 0.5 " clip-rule="nonzero"/></clipPath><clipPath id="0de4e4bb2c"><rect x="0" width="148" y="0" height="38"/></clipPath><clipPath id="6622d4f857"><path d="M 1.5 1.5 L 148.5 1.5 L 148.5 39 L 1.5 39 Z M 1.5 1.5 " clip-rule="nonzero"/></clipPath><clipPath id="e098dc7bb7"><path d="M 3.75 1.5 L 146.25 1.5 C 146.847656 1.5 147.417969 1.738281 147.839844 2.160156 C 148.261719 2.582031 148.5 3.152344 148.5 3.75 L 148.5 36.75 C 148.5 37.347656 148.261719 37.917969 147.839844 38.339844 C 147.417969 38.761719 146.847656 39 146.25 39 L 3.75 39 C 3.152344 39 2.582031 38.761719 2.160156 38.339844 C 1.738281 37.917969 1.5 37.347656 1.5 36.75 L 1.5 3.75 C 1.5 3.152344 1.738281 2.582031 2.160156 2.160156 C 2.582031 1.738281 3.152344 1.5 3.75 1.5 Z M 3.75 1.5 " clip-rule="nonzero"/></clipPath><clipPath id="78dc245000"><path d="M 11.640625 7.5625 L 35.640625 7.5625 L 35.640625 31 L 11.640625 31 Z M 11.640625 7.5625 " clip-rule="nonzero"/></clipPath></defs><g clip-path="url(#3a9abef138)"><g clip-path="url(#867abd8a74)"><g transform="matrix(1, 0, 0, 1, 1, 1)"><g clip-path="url(#0de4e4bb2c)"><g clip-path="url(#4185fbf149)"><g clip-path="url(#a84fac36d7)"><path fill="#ffffff" d="M 0.5 0.5 L 147.570312 0.5 L 147.570312 38 L 0.5 38 Z M 0.5 0.5 " fill-opacity="1" fill-rule="nonzero"/></g></g></g></g></g></g><g clip-path="url(#6622d4f857)"><g clip-path="url(#e098dc7bb7)"><path stroke-linecap="butt" transform="matrix(0.75, 0, 0, 0.75, 1.500002, 1.5)" fill="none" stroke-linejoin="miter" d="M 2.999997 0.0000000833333 L 193.000018 0.0000000833333 C 193.796893 0.0000000833333 194.557309 0.317708 195.119809 0.880209 C 195.68231 1.442709 196.000018 2.203125 196.000018 3 L 196.000018 47.000005 C 196.000018 47.79688 195.68231 48.557297 195.119809 49.119797 C 194.557309 49.682297 193.796893 50.000005 193.000018 50.000005 L 2.999997 50.000005 C 2.203122 50.000005 1.442706 49.682297 0.880206 49.119797 C 0.317706 48.557297 -0.00000282867 47.79688 -0.00000282867 47.000005 L -0.00000282867 3 C -0.00000282867 2.203125 0.317706 1.442709 0.880206 0.880209 C 1.442706 0.317708 2.203122 0.0000000833333 2.999997 0.0000000833333 Z M 2.999997 0.0000000833333 " stroke="#f1f1f1" stroke-width="2" stroke-opacity="1" stroke-miterlimit="4"/></g></g><g clip-path="url(#78dc245000)"><path fill="#000000" d="M 23.605469 7.5625 C 22.820312 7.5625 22.042969 7.640625 21.269531 7.792969 C 20.5 7.945312 19.753906 8.171875 19.027344 8.472656 C 18.300781 8.773438 17.613281 9.144531 16.957031 9.578125 C 16.304688 10.015625 15.703125 10.511719 15.144531 11.066406 C 14.589844 11.621094 14.09375 12.226562 13.65625 12.878906 C 13.222656 13.535156 12.851562 14.222656 12.550781 14.949219 C 12.25 15.675781 12.023438 16.421875 11.871094 17.191406 C 11.71875 17.964844 11.640625 18.742188 11.640625 19.527344 C 11.640625 24.808594 15.089844 29.289062 19.789062 30.902344 C 20.375 30.976562 20.59375 30.609375 20.59375 30.316406 L 20.59375 28.261719 C 17.292969 28.996094 16.558594 26.644531 16.558594 26.644531 C 16.046875 25.25 15.238281 24.882812 15.238281 24.882812 C 14.136719 24.148438 15.308594 24.148438 15.308594 24.148438 C 16.484375 24.222656 17.144531 25.398438 17.144531 25.398438 C 18.246094 27.230469 19.933594 26.71875 20.597656 26.425781 C 20.667969 25.617188 21.035156 25.105469 21.328125 24.8125 C 18.6875 24.515625 15.898438 23.488281 15.898438 18.867188 C 15.898438 17.546875 16.335938 16.515625 17.144531 15.636719 C 17.070312 15.414062 16.632812 14.167969 17.292969 12.554688 C 17.292969 12.554688 18.320312 12.257812 20.59375 13.800781 C 21.550781 13.507812 22.578125 13.433594 23.605469 13.433594 C 24.632812 13.433594 25.660156 13.582031 26.613281 13.800781 C 28.890625 12.261719 29.917969 12.554688 29.917969 12.554688 C 30.578125 14.167969 30.136719 15.414062 30.0625 15.710938 C 30.902344 16.621094 31.316406 17.699219 31.3125 18.9375 C 31.3125 23.5625 28.519531 24.515625 25.878906 24.8125 C 26.320312 25.175781 26.6875 25.910156 26.6875 27.011719 L 26.6875 30.316406 C 26.6875 30.609375 26.90625 30.976562 27.496094 30.902344 C 28.085938 30.703125 28.65625 30.460938 29.210938 30.171875 C 29.765625 29.882812 30.292969 29.550781 30.792969 29.179688 C 31.292969 28.808594 31.761719 28.402344 32.199219 27.957031 C 32.636719 27.511719 33.039062 27.035156 33.402344 26.527344 C 33.765625 26.019531 34.085938 25.488281 34.367188 24.929688 C 34.648438 24.375 34.882812 23.796875 35.070312 23.203125 C 35.261719 22.609375 35.40625 22.003906 35.5 21.386719 C 35.597656 20.769531 35.644531 20.152344 35.640625 19.527344 C 35.566406 12.921875 30.210938 7.5625 23.605469 7.5625 Z M 23.605469 7.5625 " fill-opacity="1" fill-rule="evenodd"/></g><g fill="#000000" fill-opacity="1"><g transform="translate(38.751502, 15.54999)"><g><path d="M 2.796875 0 L 1.21875 0 L 1.21875 -0.734375 L 2.75 -0.734375 C 3.28125 -0.734375 3.71875 -0.832031 4.0625 -1.03125 C 4.414062 -1.238281 4.679688 -1.53125 4.859375 -1.90625 C 5.035156 -2.289062 5.125 -2.75 5.125 -3.28125 C 5.125 -3.8125 5.035156 -4.265625 4.859375 -4.640625 C 4.691406 -5.015625 4.4375 -5.300781 4.09375 -5.5 C 3.757812 -5.707031 3.335938 -5.8125 2.828125 -5.8125 L 1.1875 -5.8125 L 1.1875 -6.546875 L 2.890625 -6.546875 C 3.523438 -6.546875 4.066406 -6.414062 4.515625 -6.15625 C 4.972656 -5.894531 5.320312 -5.519531 5.5625 -5.03125 C 5.800781 -4.539062 5.921875 -3.957031 5.921875 -3.28125 C 5.921875 -2.601562 5.796875 -2.019531 5.546875 -1.53125 C 5.304688 -1.039062 4.953125 -0.660156 4.484375 -0.390625 C 4.023438 -0.128906 3.460938 0 2.796875 0 Z M 1.59375 -6.546875 L 1.59375 0 L 0.765625 0 L 0.765625 -6.546875 Z M 1.59375 -6.546875 "/></g></g><g transform="translate(45.180701, 15.54999)"><g><path d="M 2.640625 0.109375 C 2.203125 0.109375 1.816406 0.00390625 1.484375 -0.203125 C 1.148438 -0.410156 0.890625 -0.703125 0.703125 -1.078125 C 0.515625 -1.460938 0.421875 -1.90625 0.421875 -2.40625 C 0.421875 -2.90625 0.515625 -3.34375 0.703125 -3.71875 C 0.890625 -4.101562 1.148438 -4.398438 1.484375 -4.609375 C 1.816406 -4.816406 2.203125 -4.921875 2.640625 -4.921875 C 3.085938 -4.921875 3.476562 -4.816406 3.8125 -4.609375 C 4.144531 -4.398438 4.40625 -4.101562 4.59375 -3.71875 C 4.78125 -3.34375 4.875 -2.90625 4.875 -2.40625 C 4.875 -1.90625 4.78125 -1.460938 4.59375 -1.078125 C 4.40625 -0.703125 4.144531 -0.410156 3.8125 -0.203125 C 3.476562 0.00390625 3.085938 0.109375 2.640625 0.109375 Z M 2.640625 -0.59375 C 2.960938 -0.59375 3.226562 -0.671875 3.4375 -0.828125 C 3.65625 -0.992188 3.816406 -1.210938 3.921875 -1.484375 C 4.023438 -1.765625 4.078125 -2.070312 4.078125 -2.40625 C 4.078125 -2.726562 4.023438 -3.03125 3.921875 -3.3125 C 3.816406 -3.59375 3.65625 -3.8125 3.4375 -3.96875 C 3.226562 -4.132812 2.960938 -4.21875 2.640625 -4.21875 C 2.328125 -4.21875 2.0625 -4.132812 1.84375 -3.96875 C 1.632812 -3.8125 1.476562 -3.59375 1.375 -3.3125 C 1.269531 -3.039062 1.21875 -2.738281 1.21875 -2.40625 C 1.21875 -2.070312 1.269531 -1.765625 1.375 -1.484375 C 1.476562 -1.210938 1.632812 -0.992188 1.84375 -0.828125 C 2.050781 -0.671875 2.316406 -0.59375 2.640625 -0.59375 Z M 2.640625 -0.59375 "/></g></g></g><g fill="#000000" fill-opacity="1"><g transform="translate(50.313514, 15.54999)"><g><path d="M 1.75 0 L 0.265625 -4.859375 L 1.09375 -4.859375 L 1.6875 -2.734375 C 1.769531 -2.429688 1.859375 -2.097656 1.953125 -1.734375 C 2.046875 -1.378906 2.132812 -0.984375 2.21875 -0.546875 L 2.09375 -0.546875 C 2.1875 -0.960938 2.273438 -1.351562 2.359375 -1.71875 C 2.453125 -2.082031 2.539062 -2.421875 2.625 -2.734375 L 3.21875 -4.859375 L 4.03125 -4.859375 L 4.609375 -2.734375 C 4.691406 -2.429688 4.773438 -2.097656 4.859375 -1.734375 C 4.953125 -1.367188 5.046875 -0.972656 5.140625 -0.546875 L 5 -0.546875 C 5.09375 -0.972656 5.179688 -1.363281 5.265625 -1.71875 C 5.359375 -2.082031 5.453125 -2.421875 5.546875 -2.734375 L 6.140625 -4.859375 L 6.96875 -4.859375 L 5.484375 0 L 4.703125 0 L 4.0625 -2.203125 C 4 -2.421875 3.9375 -2.644531 3.875 -2.875 C 3.820312 -3.101562 3.765625 -3.335938 3.703125 -3.578125 C 3.640625 -3.816406 3.582031 -4.0625 3.53125 -4.3125 L 3.703125 -4.3125 C 3.648438 -4.070312 3.59375 -3.828125 3.53125 -3.578125 C 3.46875 -3.335938 3.40625 -3.101562 3.34375 -2.875 C 3.289062 -2.644531 3.234375 -2.421875 3.171875 -2.203125 L 2.53125 0 Z M 1.75 0 "/></g></g><g transform="translate(57.546912, 15.54999)"><g><path d="M 1.453125 -2.890625 L 1.453125 0 L 0.65625 0 L 0.65625 -4.859375 L 1.421875 -4.859375 L 1.421875 -3.671875 L 1.28125 -3.671875 C 1.4375 -4.117188 1.648438 -4.4375 1.921875 -4.625 C 2.203125 -4.820312 2.523438 -4.921875 2.890625 -4.921875 C 3.222656 -4.921875 3.515625 -4.851562 3.765625 -4.71875 C 4.015625 -4.582031 4.207031 -4.375 4.34375 -4.09375 C 4.488281 -3.820312 4.5625 -3.476562 4.5625 -3.0625 L 4.5625 0 L 3.78125 0 L 3.78125 -3 C 3.78125 -3.382812 3.679688 -3.679688 3.484375 -3.890625 C 3.285156 -4.109375 3.019531 -4.21875 2.6875 -4.21875 C 2.445312 -4.21875 2.234375 -4.164062 2.046875 -4.0625 C 1.859375 -3.96875 1.710938 -3.820312 1.609375 -3.625 C 1.503906 -3.425781 1.453125 -3.179688 1.453125 -2.890625 Z M 1.453125 -2.890625 "/></g></g><g transform="translate(62.776404, 15.54999)"><g><path d="M 1.453125 -6.546875 L 1.453125 0 L 0.65625 0 L 0.65625 -6.546875 Z M 1.453125 -6.546875 "/></g></g><g transform="translate(64.885779, 15.54999)"><g><path d="M 2.640625 0.109375 C 2.203125 0.109375 1.816406 0.00390625 1.484375 -0.203125 C 1.148438 -0.410156 0.890625 -0.703125 0.703125 -1.078125 C 0.515625 -1.460938 0.421875 -1.90625 0.421875 -2.40625 C 0.421875 -2.90625 0.515625 -3.34375 0.703125 -3.71875 C 0.890625 -4.101562 1.148438 -4.398438 1.484375 -4.609375 C 1.816406 -4.816406 2.203125 -4.921875 2.640625 -4.921875 C 3.085938 -4.921875 3.476562 -4.816406 3.8125 -4.609375 C 4.144531 -4.398438 4.40625 -4.101562 4.59375 -3.71875 C 4.78125 -3.34375 4.875 -2.90625 4.875 -2.40625 C 4.875 -1.90625 4.78125 -1.460938 4.59375 -1.078125 C 4.40625 -0.703125 4.144531 -0.410156 3.8125 -0.203125 C 3.476562 0.00390625 3.085938 0.109375 2.640625 0.109375 Z M 2.640625 -0.59375 C 2.960938 -0.59375 3.226562 -0.671875 3.4375 -0.828125 C 3.65625 -0.992188 3.816406 -1.210938 3.921875 -1.484375 C 4.023438 -1.765625 4.078125 -2.070312 4.078125 -2.40625 C 4.078125 -2.726562 4.023438 -3.03125 3.921875 -3.3125 C 3.816406 -3.59375 3.65625 -3.8125 3.4375 -3.96875 C 3.226562 -4.132812 2.960938 -4.21875 2.640625 -4.21875 C 2.328125 -4.21875 2.0625 -4.132812 1.84375 -3.96875 C 1.632812 -3.8125 1.476562 -3.59375 1.375 -3.3125 C 1.269531 -3.039062 1.21875 -2.738281 1.21875 -2.40625 C 1.21875 -2.070312 1.269531 -1.765625 1.375 -1.484375 C 1.476562 -1.210938 1.632812 -0.992188 1.84375 -0.828125 C 2.050781 -0.671875 2.316406 -0.59375 2.640625 -0.59375 Z M 2.640625 -0.59375 "/></g></g></g><g fill="#000000" fill-opacity="1"><g transform="translate(70.26029, 15.54999)"><g><path d="M 2.046875 0.109375 C 1.734375 0.109375 1.453125 0.0507812 1.203125 -0.0625 C 0.953125 -0.175781 0.753906 -0.34375 0.609375 -0.5625 C 0.460938 -0.789062 0.390625 -1.066406 0.390625 -1.390625 C 0.390625 -1.660156 0.441406 -1.882812 0.546875 -2.0625 C 0.660156 -2.238281 0.804688 -2.375 0.984375 -2.46875 C 1.171875 -2.570312 1.375 -2.644531 1.59375 -2.6875 C 1.820312 -2.738281 2.050781 -2.78125 2.28125 -2.8125 C 2.570312 -2.851562 2.804688 -2.882812 2.984375 -2.90625 C 3.171875 -2.925781 3.304688 -2.957031 3.390625 -3 C 3.484375 -3.050781 3.53125 -3.140625 3.53125 -3.265625 L 3.53125 -3.296875 C 3.53125 -3.492188 3.488281 -3.660156 3.40625 -3.796875 C 3.332031 -3.941406 3.21875 -4.050781 3.0625 -4.125 C 2.90625 -4.195312 2.71875 -4.234375 2.5 -4.234375 C 2.269531 -4.234375 2.070312 -4.195312 1.90625 -4.125 C 1.738281 -4.050781 1.601562 -3.957031 1.5 -3.84375 C 1.394531 -3.726562 1.320312 -3.609375 1.28125 -3.484375 L 0.515625 -3.6875 C 0.617188 -3.976562 0.769531 -4.210938 0.96875 -4.390625 C 1.175781 -4.578125 1.410156 -4.710938 1.671875 -4.796875 C 1.929688 -4.878906 2.203125 -4.921875 2.484375 -4.921875 C 2.671875 -4.921875 2.867188 -4.894531 3.078125 -4.84375 C 3.285156 -4.800781 3.484375 -4.71875 3.671875 -4.59375 C 3.859375 -4.476562 4.007812 -4.304688 4.125 -4.078125 C 4.238281 -3.859375 4.296875 -3.578125 4.296875 -3.234375 L 4.296875 0 L 3.53125 0 L 3.53125 -0.671875 L 3.484375 -0.671875 C 3.429688 -0.554688 3.34375 -0.4375 3.21875 -0.3125 C 3.101562 -0.195312 2.945312 -0.0976562 2.75 -0.015625 C 2.5625 0.0664062 2.328125 0.109375 2.046875 0.109375 Z M 2.171875 -0.59375 C 2.472656 -0.59375 2.722656 -0.644531 2.921875 -0.75 C 3.117188 -0.863281 3.269531 -1.007812 3.375 -1.1875 C 3.476562 -1.375 3.53125 -1.566406 3.53125 -1.765625 L 3.53125 -2.4375 C 3.488281 -2.394531 3.414062 -2.359375 3.3125 -2.328125 C 3.21875 -2.304688 3.101562 -2.28125 2.96875 -2.25 C 2.832031 -2.226562 2.695312 -2.207031 2.5625 -2.1875 C 2.4375 -2.175781 2.332031 -2.164062 2.25 -2.15625 C 2.0625 -2.132812 1.882812 -2.09375 1.71875 -2.03125 C 1.550781 -1.976562 1.414062 -1.894531 1.3125 -1.78125 C 1.21875 -1.675781 1.171875 -1.53125 1.171875 -1.34375 C 1.171875 -1.175781 1.210938 -1.035156 1.296875 -0.921875 C 1.390625 -0.816406 1.507812 -0.734375 1.65625 -0.671875 C 1.800781 -0.617188 1.972656 -0.59375 2.171875 -0.59375 Z M 2.171875 -0.59375 "/></g></g><g transform="translate(75.22611, 15.54999)"><g><path d="M 2.484375 0.09375 C 2.078125 0.09375 1.71875 -0.00390625 1.40625 -0.203125 C 1.101562 -0.410156 0.863281 -0.703125 0.6875 -1.078125 C 0.507812 -1.453125 0.421875 -1.898438 0.421875 -2.421875 C 0.421875 -2.929688 0.507812 -3.375 0.6875 -3.75 C 0.863281 -4.125 1.109375 -4.410156 1.421875 -4.609375 C 1.734375 -4.816406 2.085938 -4.921875 2.484375 -4.921875 C 2.785156 -4.921875 3.03125 -4.875 3.21875 -4.78125 C 3.40625 -4.6875 3.550781 -4.570312 3.65625 -4.4375 C 3.769531 -4.3125 3.859375 -4.195312 3.921875 -4.09375 L 3.96875 -4.09375 L 3.96875 -6.546875 L 4.75 -6.546875 L 4.75 0 L 4 0 L 4 -0.75 L 3.921875 -0.75 C 3.859375 -0.632812 3.769531 -0.507812 3.65625 -0.375 C 3.539062 -0.25 3.390625 -0.140625 3.203125 -0.046875 C 3.015625 0.046875 2.773438 0.09375 2.484375 0.09375 Z M 2.609375 -0.59375 C 2.898438 -0.59375 3.148438 -0.671875 3.359375 -0.828125 C 3.566406 -0.984375 3.722656 -1.195312 3.828125 -1.46875 C 3.941406 -1.738281 4 -2.054688 4 -2.421875 C 4 -2.785156 3.941406 -3.097656 3.828125 -3.359375 C 3.722656 -3.628906 3.566406 -3.835938 3.359375 -3.984375 C 3.148438 -4.140625 2.898438 -4.21875 2.609375 -4.21875 C 2.304688 -4.21875 2.050781 -4.140625 1.84375 -3.984375 C 1.632812 -3.828125 1.476562 -3.613281 1.375 -3.34375 C 1.269531 -3.070312 1.21875 -2.765625 1.21875 -2.421875 C 1.21875 -2.078125 1.269531 -1.765625 1.375 -1.484375 C 1.476562 -1.210938 1.632812 -0.992188 1.84375 -0.828125 C 2.050781 -0.671875 2.304688 -0.59375 2.609375 -0.59375 Z M 2.609375 -0.59375 "/></g></g><g transform="translate(80.644567, 15.54999)"><g/></g><g transform="translate(83.114293, 15.54999)"><g><path d="M 2.890625 -4.859375 L 2.890625 -4.1875 L 0.078125 -4.1875 L 0.078125 -4.859375 Z M 1.015625 0 L 1.015625 -5.546875 C 1.015625 -5.816406 1.078125 -6.039062 1.203125 -6.21875 C 1.328125 -6.40625 1.492188 -6.546875 1.703125 -6.640625 C 1.910156 -6.734375 2.132812 -6.78125 2.375 -6.78125 C 2.539062 -6.78125 2.679688 -6.769531 2.796875 -6.75 C 2.921875 -6.726562 3.003906 -6.707031 3.046875 -6.6875 L 2.890625 -6.015625 C 2.847656 -6.023438 2.789062 -6.035156 2.71875 -6.046875 C 2.644531 -6.066406 2.5625 -6.078125 2.46875 -6.078125 C 2.226562 -6.078125 2.054688 -6.015625 1.953125 -5.890625 C 1.847656 -5.773438 1.796875 -5.609375 1.796875 -5.390625 L 1.796875 0 Z M 1.015625 0 "/></g></g><g transform="translate(86.317906, 15.54999)"><g><path d="M 0.65625 0 L 0.65625 -4.859375 L 1.421875 -4.859375 L 1.421875 -4.109375 L 1.453125 -4.109375 C 1.546875 -4.347656 1.703125 -4.539062 1.921875 -4.6875 C 2.148438 -4.84375 2.410156 -4.921875 2.703125 -4.921875 C 2.765625 -4.921875 2.832031 -4.914062 2.90625 -4.90625 C 2.976562 -4.90625 3.035156 -4.90625 3.078125 -4.90625 L 3.078125 -4.125 C 3.054688 -4.125 3 -4.128906 2.90625 -4.140625 C 2.8125 -4.160156 2.710938 -4.171875 2.609375 -4.171875 C 2.390625 -4.171875 2.191406 -4.125 2.015625 -4.03125 C 1.835938 -3.9375 1.695312 -3.800781 1.59375 -3.625 C 1.5 -3.457031 1.453125 -3.257812 1.453125 -3.03125 L 1.453125 0 Z M 0.65625 0 "/></g></g></g><g fill="#000000" fill-opacity="1"><g transform="translate(89.459996, 15.54999)"><g><path d="M 2.640625 0.109375 C 2.203125 0.109375 1.816406 0.00390625 1.484375 -0.203125 C 1.148438 -0.410156 0.890625 -0.703125 0.703125 -1.078125 C 0.515625 -1.460938 0.421875 -1.90625 0.421875 -2.40625 C 0.421875 -2.90625 0.515625 -3.34375 0.703125 -3.71875 C 0.890625 -4.101562 1.148438 -4.398438 1.484375 -4.609375 C 1.816406 -4.816406 2.203125 -4.921875 2.640625 -4.921875 C 3.085938 -4.921875 3.476562 -4.816406 3.8125 -4.609375 C 4.144531 -4.398438 4.40625 -4.101562 4.59375 -3.71875 C 4.78125 -3.34375 4.875 -2.90625 4.875 -2.40625 C 4.875 -1.90625 4.78125 -1.460938 4.59375 -1.078125 C 4.40625 -0.703125 4.144531 -0.410156 3.8125 -0.203125 C 3.476562 0.00390625 3.085938 0.109375 2.640625 0.109375 Z M 2.640625 -0.59375 C 2.960938 -0.59375 3.226562 -0.671875 3.4375 -0.828125 C 3.65625 -0.992188 3.816406 -1.210938 3.921875 -1.484375 C 4.023438 -1.765625 4.078125 -2.070312 4.078125 -2.40625 C 4.078125 -2.726562 4.023438 -3.03125 3.921875 -3.3125 C 3.816406 -3.59375 3.65625 -3.8125 3.4375 -3.96875 C 3.226562 -4.132812 2.960938 -4.21875 2.640625 -4.21875 C 2.328125 -4.21875 2.0625 -4.132812 1.84375 -3.96875 C 1.632812 -3.8125 1.476562 -3.59375 1.375 -3.3125 C 1.269531 -3.039062 1.21875 -2.738281 1.21875 -2.40625 C 1.21875 -2.070312 1.269531 -1.765625 1.375 -1.484375 C 1.476562 -1.210938 1.632812 -0.992188 1.84375 -0.828125 C 2.050781 -0.671875 2.316406 -0.59375 2.640625 -0.59375 Z M 2.640625 -0.59375 "/></g></g><g transform="translate(94.755406, 15.54999)"><g><path d="M 0.65625 0 L 0.65625 -4.859375 L 1.421875 -4.859375 L 1.421875 -3.78125 L 1.359375 -3.78125 C 1.429688 -4.039062 1.539062 -4.253906 1.6875 -4.421875 C 1.832031 -4.597656 2 -4.726562 2.1875 -4.8125 C 2.382812 -4.894531 2.585938 -4.9375 2.796875 -4.9375 C 3.160156 -4.9375 3.457031 -4.828125 3.6875 -4.609375 C 3.914062 -4.398438 4.0625 -4.125 4.125 -3.78125 L 4 -3.78125 C 4.0625 -4.007812 4.164062 -4.210938 4.3125 -4.390625 C 4.46875 -4.566406 4.65625 -4.703125 4.875 -4.796875 C 5.09375 -4.890625 5.332031 -4.9375 5.59375 -4.9375 C 5.882812 -4.9375 6.144531 -4.875 6.375 -4.75 C 6.613281 -4.632812 6.800781 -4.453125 6.9375 -4.203125 C 7.070312 -3.953125 7.140625 -3.632812 7.140625 -3.25 L 7.140625 0 L 6.359375 0 L 6.359375 -3.234375 C 6.359375 -3.585938 6.257812 -3.84375 6.0625 -4 C 5.863281 -4.15625 5.632812 -4.234375 5.375 -4.234375 C 5.144531 -4.234375 4.953125 -4.1875 4.796875 -4.09375 C 4.640625 -4 4.515625 -3.867188 4.421875 -3.703125 C 4.335938 -3.546875 4.296875 -3.363281 4.296875 -3.15625 L 4.296875 0 L 3.515625 0 L 3.515625 -3.3125 C 3.515625 -3.59375 3.421875 -3.816406 3.234375 -3.984375 C 3.054688 -4.148438 2.828125 -4.234375 2.546875 -4.234375 C 2.359375 -4.234375 2.175781 -4.1875 2 -4.09375 C 1.832031 -4 1.695312 -3.863281 1.59375 -3.6875 C 1.5 -3.507812 1.453125 -3.289062 1.453125 -3.03125 L 1.453125 0 Z M 0.65625 0 "/></g></g><g transform="translate(102.564488, 15.54999)"><g/></g><g transform="translate(105.034214, 15.54999)"><g><path d="M 2.625 -4.859375 L 2.625 -4.1875 L 0.078125 -4.1875 L 0.078125 -4.859375 Z M 0.84375 -6.046875 L 1.625 -6.046875 L 1.625 -1.234375 C 1.625 -1.023438 1.664062 -0.875 1.75 -0.78125 C 1.832031 -0.6875 1.976562 -0.640625 2.1875 -0.640625 C 2.238281 -0.640625 2.300781 -0.644531 2.375 -0.65625 C 2.457031 -0.664062 2.53125 -0.675781 2.59375 -0.6875 L 2.71875 -0.015625 C 2.644531 0.00390625 2.554688 0.0195312 2.453125 0.03125 C 2.347656 0.0390625 2.25 0.046875 2.15625 0.046875 C 1.738281 0.046875 1.414062 -0.0546875 1.1875 -0.265625 C 0.957031 -0.484375 0.84375 -0.785156 0.84375 -1.171875 Z M 0.84375 -6.046875 "/></g></g><g transform="translate(107.947788, 15.54999)"><g><path d="M 1.453125 -2.890625 L 1.453125 0 L 0.65625 0 L 0.65625 -6.546875 L 1.453125 -6.546875 L 1.453125 -3.671875 L 1.28125 -3.671875 C 1.4375 -4.117188 1.648438 -4.4375 1.921875 -4.625 C 2.203125 -4.820312 2.523438 -4.921875 2.890625 -4.921875 C 3.222656 -4.921875 3.515625 -4.851562 3.765625 -4.71875 C 4.015625 -4.582031 4.210938 -4.375 4.359375 -4.09375 C 4.503906 -3.820312 4.578125 -3.476562 4.578125 -3.0625 L 4.578125 0 L 3.78125 0 L 3.78125 -3 C 3.78125 -3.382812 3.679688 -3.679688 3.484375 -3.890625 C 3.285156 -4.109375 3.019531 -4.21875 2.6875 -4.21875 C 2.445312 -4.21875 2.234375 -4.164062 2.046875 -4.0625 C 1.859375 -3.96875 1.710938 -3.820312 1.609375 -3.625 C 1.503906 -3.425781 1.453125 -3.179688 1.453125 -2.890625 Z M 1.453125 -2.890625 "/></g></g><g transform="translate(113.181675, 15.54999)"><g><path d="M 2.6875 0.109375 C 2.21875 0.109375 1.8125 0.00390625 1.46875 -0.203125 C 1.132812 -0.421875 0.875 -0.71875 0.6875 -1.09375 C 0.507812 -1.46875 0.421875 -1.898438 0.421875 -2.390625 C 0.421875 -2.890625 0.507812 -3.328125 0.6875 -3.703125 C 0.875 -4.085938 1.128906 -4.382812 1.453125 -4.59375 C 1.785156 -4.8125 2.171875 -4.921875 2.609375 -4.921875 C 2.890625 -4.921875 3.15625 -4.875 3.40625 -4.78125 C 3.65625 -4.6875 3.878906 -4.539062 4.078125 -4.34375 C 4.285156 -4.144531 4.445312 -3.890625 4.5625 -3.578125 C 4.6875 -3.273438 4.75 -2.90625 4.75 -2.46875 L 4.75 -2.171875 L 0.9375 -2.171875 L 0.9375 -2.828125 L 4.3125 -2.828125 L 3.96875 -2.59375 C 3.96875 -2.914062 3.914062 -3.195312 3.8125 -3.4375 C 3.707031 -3.6875 3.550781 -3.878906 3.34375 -4.015625 C 3.144531 -4.160156 2.898438 -4.234375 2.609375 -4.234375 C 2.316406 -4.234375 2.066406 -4.160156 1.859375 -4.015625 C 1.648438 -3.878906 1.488281 -3.691406 1.375 -3.453125 C 1.269531 -3.222656 1.21875 -2.96875 1.21875 -2.6875 L 1.21875 -2.28125 C 1.21875 -1.925781 1.273438 -1.617188 1.390625 -1.359375 C 1.515625 -1.109375 1.6875 -0.914062 1.90625 -0.78125 C 2.132812 -0.65625 2.398438 -0.59375 2.703125 -0.59375 C 2.898438 -0.59375 3.078125 -0.617188 3.234375 -0.671875 C 3.390625 -0.734375 3.523438 -0.820312 3.640625 -0.9375 C 3.753906 -1.050781 3.84375 -1.191406 3.90625 -1.359375 L 4.671875 -1.203125 C 4.597656 -0.941406 4.46875 -0.710938 4.28125 -0.515625 C 4.101562 -0.316406 3.878906 -0.160156 3.609375 -0.046875 C 3.335938 0.0546875 3.03125 0.109375 2.6875 0.109375 Z M 2.6875 0.109375 "/></g></g></g><g fill="#000000" fill-opacity="1"><g transform="translate(38.751502, 29.104913)"><g><path d="M 5 0.140625 C 4.132812 0.140625 3.378906 -0.0546875 2.734375 -0.453125 C 2.085938 -0.859375 1.582031 -1.425781 1.21875 -2.15625 C 0.851562 -2.882812 0.671875 -3.738281 0.671875 -4.71875 C 0.671875 -5.71875 0.851562 -6.582031 1.21875 -7.3125 C 1.59375 -8.039062 2.097656 -8.601562 2.734375 -9 C 3.378906 -9.394531 4.113281 -9.59375 4.9375 -9.59375 C 5.445312 -9.59375 5.925781 -9.515625 6.375 -9.359375 C 6.820312 -9.210938 7.21875 -9 7.5625 -8.71875 C 7.914062 -8.4375 8.203125 -8.101562 8.421875 -7.71875 C 8.648438 -7.332031 8.804688 -6.90625 8.890625 -6.4375 L 7.421875 -6.4375 C 7.335938 -6.71875 7.21875 -6.972656 7.0625 -7.203125 C 6.914062 -7.429688 6.738281 -7.625 6.53125 -7.78125 C 6.320312 -7.945312 6.082031 -8.070312 5.8125 -8.15625 C 5.550781 -8.238281 5.265625 -8.28125 4.953125 -8.28125 C 4.410156 -8.28125 3.921875 -8.140625 3.484375 -7.859375 C 3.054688 -7.585938 2.71875 -7.1875 2.46875 -6.65625 C 2.21875 -6.125 2.09375 -5.484375 2.09375 -4.734375 C 2.09375 -3.984375 2.21875 -3.34375 2.46875 -2.8125 C 2.71875 -2.28125 3.0625 -1.875 3.5 -1.59375 C 3.9375 -1.320312 4.4375 -1.1875 5 -1.1875 C 5.5 -1.1875 5.941406 -1.285156 6.328125 -1.484375 C 6.710938 -1.691406 7.007812 -1.988281 7.21875 -2.375 C 7.4375 -2.757812 7.546875 -3.207031 7.546875 -3.71875 L 7.9375 -3.65625 L 5.234375 -3.65625 L 5.234375 -4.84375 L 8.96875 -4.84375 L 8.96875 -3.765625 C 8.96875 -2.972656 8.796875 -2.285156 8.453125 -1.703125 C 8.109375 -1.117188 7.632812 -0.664062 7.03125 -0.34375 C 6.4375 -0.0195312 5.757812 0.140625 5 0.140625 Z M 5 0.140625 "/></g></g></g><g fill="#000000" fill-opacity="1"><g transform="translate(48.422423, 29.104913)"><g><path d="M 0.890625 0 L 0.890625 -7.015625 L 2.28125 -7.015625 L 2.28125 0 Z M 1.59375 -8.109375 C 1.351562 -8.109375 1.144531 -8.1875 0.96875 -8.34375 C 0.800781 -8.507812 0.71875 -8.707031 0.71875 -8.9375 C 0.71875 -9.164062 0.800781 -9.359375 0.96875 -9.515625 C 1.144531 -9.679688 1.351562 -9.765625 1.59375 -9.765625 C 1.832031 -9.765625 2.035156 -9.679688 2.203125 -9.515625 C 2.378906 -9.359375 2.46875 -9.164062 2.46875 -8.9375 C 2.46875 -8.707031 2.378906 -8.507812 2.203125 -8.34375 C 2.035156 -8.1875 1.832031 -8.109375 1.59375 -8.109375 Z M 1.59375 -8.109375 "/></g></g></g><g fill="#000000" fill-opacity="1"><g transform="translate(51.627032, 29.104913)"><g><path d="M 3.984375 -7.015625 L 3.984375 -5.875 L 0.125 -5.875 L 0.125 -7.015625 Z M 1.1875 -8.734375 L 2.578125 -8.734375 L 2.578125 -1.890625 C 2.578125 -1.609375 2.632812 -1.40625 2.75 -1.28125 C 2.863281 -1.15625 3.054688 -1.09375 3.328125 -1.09375 C 3.410156 -1.09375 3.507812 -1.097656 3.625 -1.109375 C 3.75 -1.128906 3.851562 -1.144531 3.9375 -1.15625 L 4.125 -0.03125 C 3.988281 0 3.835938 0.0195312 3.671875 0.03125 C 3.503906 0.0507812 3.34375 0.0625 3.1875 0.0625 C 2.539062 0.0625 2.046875 -0.09375 1.703125 -0.40625 C 1.359375 -0.71875 1.1875 -1.171875 1.1875 -1.765625 Z M 1.1875 -8.734375 "/></g></g></g><g fill="#000000" fill-opacity="1"><g transform="translate(56.024642, 29.104913)"><g><path d="M 2.28125 -4.125 L 2.28125 0 L 0.890625 0 L 0.890625 -9.453125 L 2.265625 -9.453125 L 2.265625 -5.28125 L 2.0625 -5.28125 C 2.269531 -5.914062 2.566406 -6.378906 2.953125 -6.671875 C 3.347656 -6.960938 3.828125 -7.109375 4.390625 -7.109375 C 4.867188 -7.109375 5.285156 -7.003906 5.640625 -6.796875 C 6.003906 -6.597656 6.289062 -6.300781 6.5 -5.90625 C 6.707031 -5.507812 6.8125 -5.019531 6.8125 -4.4375 L 6.8125 0 L 5.421875 0 L 5.421875 -4.265625 C 5.421875 -4.785156 5.285156 -5.1875 5.015625 -5.46875 C 4.753906 -5.75 4.390625 -5.890625 3.921875 -5.890625 C 3.609375 -5.890625 3.328125 -5.820312 3.078125 -5.6875 C 2.828125 -5.550781 2.628906 -5.351562 2.484375 -5.09375 C 2.347656 -4.832031 2.28125 -4.507812 2.28125 -4.125 Z M 2.28125 -4.125 "/></g></g></g><g fill="#000000" fill-opacity="1"><g transform="translate(63.72204, 29.104913)"><g><path d="M 3.3125 0.09375 C 2.84375 0.09375 2.425781 -0.00390625 2.0625 -0.203125 C 1.695312 -0.410156 1.410156 -0.710938 1.203125 -1.109375 C 0.992188 -1.503906 0.890625 -1.992188 0.890625 -2.578125 L 0.890625 -7.015625 L 2.28125 -7.015625 L 2.28125 -2.75 C 2.28125 -2.226562 2.410156 -1.820312 2.671875 -1.53125 C 2.941406 -1.25 3.3125 -1.109375 3.78125 -1.109375 C 4.09375 -1.109375 4.367188 -1.175781 4.609375 -1.3125 C 4.859375 -1.445312 5.054688 -1.644531 5.203125 -1.90625 C 5.347656 -2.175781 5.421875 -2.5 5.421875 -2.875 L 5.421875 -7.015625 L 6.8125 -7.015625 L 6.8125 0 L 5.46875 0 L 5.46875 -1.71875 L 5.640625 -1.71875 C 5.429688 -1.09375 5.128906 -0.632812 4.734375 -0.34375 C 4.335938 -0.0507812 3.863281 0.09375 3.3125 0.09375 Z M 3.3125 0.09375 "/></g></g></g><g fill="#000000" fill-opacity="1"><g transform="translate(71.419439, 29.104913)"><g><path d="M 4.390625 0.140625 C 3.992188 0.140625 3.660156 0.0703125 3.390625 -0.0625 C 3.117188 -0.195312 2.898438 -0.359375 2.734375 -0.546875 C 2.566406 -0.734375 2.4375 -0.914062 2.34375 -1.09375 L 2.25 -1.09375 L 2.25 0 L 0.890625 0 L 0.890625 -9.453125 L 2.28125 -9.453125 L 2.28125 -5.890625 L 2.34375 -5.890625 C 2.4375 -6.066406 2.566406 -6.242188 2.734375 -6.421875 C 2.898438 -6.609375 3.113281 -6.769531 3.375 -6.90625 C 3.644531 -7.039062 3.984375 -7.109375 4.390625 -7.109375 C 4.960938 -7.109375 5.46875 -6.960938 5.90625 -6.671875 C 6.351562 -6.378906 6.703125 -5.960938 6.953125 -5.421875 C 7.210938 -4.890625 7.34375 -4.242188 7.34375 -3.484375 C 7.34375 -2.742188 7.21875 -2.101562 6.96875 -1.5625 C 6.71875 -1.019531 6.367188 -0.597656 5.921875 -0.296875 C 5.484375 -0.00390625 4.972656 0.140625 4.390625 0.140625 Z M 4.09375 -1.046875 C 4.488281 -1.046875 4.820312 -1.148438 5.09375 -1.359375 C 5.375 -1.566406 5.582031 -1.851562 5.71875 -2.21875 C 5.863281 -2.59375 5.9375 -3.019531 5.9375 -3.5 C 5.9375 -3.976562 5.863281 -4.398438 5.71875 -4.765625 C 5.582031 -5.128906 5.375 -5.410156 5.09375 -5.609375 C 4.820312 -5.816406 4.488281 -5.921875 4.09375 -5.921875 C 3.695312 -5.921875 3.359375 -5.816406 3.078125 -5.609375 C 2.804688 -5.410156 2.597656 -5.128906 2.453125 -4.765625 C 2.316406 -4.410156 2.25 -3.988281 2.25 -3.5 C 2.25 -3.007812 2.316406 -2.578125 2.453125 -2.203125 C 2.597656 -1.835938 2.8125 -1.550781 3.09375 -1.34375 C 3.375 -1.144531 3.707031 -1.046875 4.09375 -1.046875 Z M 4.09375 -1.046875 "/></g></g></g><g fill="#000000" fill-opacity="1"><g transform="translate(79.332594, 29.104913)"><g/></g></g><g fill="#000000" fill-opacity="1"><g transform="translate(82.714883, 29.104913)"><g><path d="M 1 0 L 1 -9.453125 L 4.4375 -9.453125 C 5.15625 -9.453125 5.757812 -9.328125 6.25 -9.078125 C 6.738281 -8.828125 7.101562 -8.476562 7.34375 -8.03125 C 7.59375 -7.59375 7.71875 -7.082031 7.71875 -6.5 C 7.71875 -5.90625 7.59375 -5.390625 7.34375 -4.953125 C 7.09375 -4.515625 6.71875 -4.175781 6.21875 -3.9375 C 5.726562 -3.695312 5.125 -3.578125 4.40625 -3.578125 L 1.828125 -3.578125 L 1.828125 -4.8125 L 4.3125 -4.8125 C 4.757812 -4.8125 5.128906 -4.875 5.421875 -5 C 5.710938 -5.132812 5.925781 -5.328125 6.0625 -5.578125 C 6.195312 -5.835938 6.265625 -6.144531 6.265625 -6.5 C 6.265625 -6.851562 6.195312 -7.15625 6.0625 -7.40625 C 5.925781 -7.664062 5.710938 -7.863281 5.421875 -8 C 5.128906 -8.144531 4.753906 -8.21875 4.296875 -8.21875 L 2.453125 -8.21875 L 2.453125 0 Z M 6.40625 0 L 4.125 -4.265625 L 5.71875 -4.265625 L 8.03125 0 Z M 6.40625 0 "/></g></g></g><g fill="#000000" fill-opacity="1"><g transform="translate(90.907228, 29.104913)"><g><path d="M 3.921875 0.140625 C 3.222656 0.140625 2.625 -0.00390625 2.125 -0.296875 C 1.625 -0.597656 1.238281 -1.019531 0.96875 -1.5625 C 0.707031 -2.101562 0.578125 -2.738281 0.578125 -3.46875 C 0.578125 -4.175781 0.707031 -4.804688 0.96875 -5.359375 C 1.238281 -5.910156 1.613281 -6.335938 2.09375 -6.640625 C 2.582031 -6.953125 3.148438 -7.109375 3.796875 -7.109375 C 4.222656 -7.109375 4.625 -7.035156 5 -6.890625 C 5.382812 -6.753906 5.722656 -6.539062 6.015625 -6.25 C 6.304688 -5.96875 6.535156 -5.601562 6.703125 -5.15625 C 6.878906 -4.707031 6.96875 -4.175781 6.96875 -3.5625 L 6.96875 -3.09375 L 1.3125 -3.09375 L 1.3125 -4.125 L 6.25 -4.125 L 5.609375 -3.796875 C 5.609375 -4.222656 5.539062 -4.597656 5.40625 -4.921875 C 5.269531 -5.253906 5.066406 -5.507812 4.796875 -5.6875 C 4.523438 -5.875 4.195312 -5.96875 3.8125 -5.96875 C 3.414062 -5.96875 3.078125 -5.875 2.796875 -5.6875 C 2.523438 -5.5 2.316406 -5.25 2.171875 -4.9375 C 2.023438 -4.632812 1.953125 -4.289062 1.953125 -3.90625 L 1.953125 -3.234375 C 1.953125 -2.765625 2.03125 -2.363281 2.1875 -2.03125 C 2.351562 -1.695312 2.582031 -1.441406 2.875 -1.265625 C 3.175781 -1.085938 3.523438 -1 3.921875 -1 C 4.191406 -1 4.4375 -1.035156 4.65625 -1.109375 C 4.875 -1.191406 5.054688 -1.304688 5.203125 -1.453125 C 5.359375 -1.609375 5.472656 -1.796875 5.546875 -2.015625 L 6.859375 -1.78125 C 6.753906 -1.394531 6.566406 -1.054688 6.296875 -0.765625 C 6.023438 -0.484375 5.6875 -0.257812 5.28125 -0.09375 C 4.875 0.0625 4.421875 0.140625 3.921875 0.140625 Z M 3.921875 0.140625 "/></g></g></g><g fill="#000000" fill-opacity="1"><g transform="translate(98.414254, 29.104913)"><g><path d="M 2.28125 -9.453125 L 2.28125 0 L 0.890625 0 L 0.890625 -9.453125 Z M 2.28125 -9.453125 "/></g></g></g><g fill="#000000" fill-opacity="1"><g transform="translate(101.59348, 29.104913)"><g><path d="M 3.921875 0.140625 C 3.222656 0.140625 2.625 -0.00390625 2.125 -0.296875 C 1.625 -0.597656 1.238281 -1.019531 0.96875 -1.5625 C 0.707031 -2.101562 0.578125 -2.738281 0.578125 -3.46875 C 0.578125 -4.175781 0.707031 -4.804688 0.96875 -5.359375 C 1.238281 -5.910156 1.613281 -6.335938 2.09375 -6.640625 C 2.582031 -6.953125 3.148438 -7.109375 3.796875 -7.109375 C 4.222656 -7.109375 4.625 -7.035156 5 -6.890625 C 5.382812 -6.753906 5.722656 -6.539062 6.015625 -6.25 C 6.304688 -5.96875 6.535156 -5.601562 6.703125 -5.15625 C 6.878906 -4.707031 6.96875 -4.175781 6.96875 -3.5625 L 6.96875 -3.09375 L 1.3125 -3.09375 L 1.3125 -4.125 L 6.25 -4.125 L 5.609375 -3.796875 C 5.609375 -4.222656 5.539062 -4.597656 5.40625 -4.921875 C 5.269531 -5.253906 5.066406 -5.507812 4.796875 -5.6875 C 4.523438 -5.875 4.195312 -5.96875 3.8125 -5.96875 C 3.414062 -5.96875 3.078125 -5.875 2.796875 -5.6875 C 2.523438 -5.5 2.316406 -5.25 2.171875 -4.9375 C 2.023438 -4.632812 1.953125 -4.289062 1.953125 -3.90625 L 1.953125 -3.234375 C 1.953125 -2.765625 2.03125 -2.363281 2.1875 -2.03125 C 2.351562 -1.695312 2.582031 -1.441406 2.875 -1.265625 C 3.175781 -1.085938 3.523438 -1 3.921875 -1 C 4.191406 -1 4.4375 -1.035156 4.65625 -1.109375 C 4.875 -1.191406 5.054688 -1.304688 5.203125 -1.453125 C 5.359375 -1.609375 5.472656 -1.796875 5.546875 -2.015625 L 6.859375 -1.78125 C 6.753906 -1.394531 6.566406 -1.054688 6.296875 -0.765625 C 6.023438 -0.484375 5.6875 -0.257812 5.28125 -0.09375 C 4.875 0.0625 4.421875 0.140625 3.921875 0.140625 Z M 3.921875 0.140625 "/></g></g></g><g fill="#000000" fill-opacity="1"><g transform="translate(109.214741, 29.104913)"><g><path d="M 2.890625 0.140625 C 2.441406 0.140625 2.035156 0.0625 1.671875 -0.09375 C 1.316406 -0.257812 1.035156 -0.5 0.828125 -0.8125 C 0.617188 -1.132812 0.515625 -1.523438 0.515625 -1.984375 C 0.515625 -2.378906 0.59375 -2.707031 0.75 -2.96875 C 0.90625 -3.226562 1.109375 -3.429688 1.359375 -3.578125 C 1.617188 -3.722656 1.910156 -3.832031 2.234375 -3.90625 C 2.554688 -3.988281 2.890625 -4.046875 3.234375 -4.078125 C 3.648438 -4.128906 3.984375 -4.171875 4.234375 -4.203125 C 4.492188 -4.242188 4.679688 -4.296875 4.796875 -4.359375 C 4.921875 -4.429688 4.984375 -4.550781 4.984375 -4.71875 L 4.984375 -4.765625 C 4.984375 -5.015625 4.929688 -5.226562 4.828125 -5.40625 C 4.734375 -5.59375 4.582031 -5.734375 4.375 -5.828125 C 4.175781 -5.929688 3.925781 -5.984375 3.625 -5.984375 C 3.332031 -5.984375 3.070312 -5.929688 2.84375 -5.828125 C 2.625 -5.734375 2.445312 -5.613281 2.3125 -5.46875 C 2.175781 -5.320312 2.082031 -5.160156 2.03125 -4.984375 L 0.71875 -5.25 C 0.84375 -5.675781 1.046875 -6.023438 1.328125 -6.296875 C 1.617188 -6.566406 1.960938 -6.769531 2.359375 -6.90625 C 2.753906 -7.039062 3.175781 -7.109375 3.625 -7.109375 C 3.9375 -7.109375 4.253906 -7.066406 4.578125 -6.984375 C 4.898438 -6.910156 5.195312 -6.78125 5.46875 -6.59375 C 5.738281 -6.414062 5.957031 -6.171875 6.125 -5.859375 C 6.289062 -5.546875 6.375 -5.15625 6.375 -4.6875 L 6.375 0 L 5.03125 0 L 5.03125 -0.96875 L 4.96875 -0.96875 C 4.875 -0.78125 4.738281 -0.601562 4.5625 -0.4375 C 4.382812 -0.269531 4.15625 -0.128906 3.875 -0.015625 C 3.601562 0.0859375 3.273438 0.140625 2.890625 0.140625 Z M 3.203125 -0.96875 C 3.585938 -0.96875 3.910156 -1.039062 4.171875 -1.1875 C 4.441406 -1.332031 4.644531 -1.523438 4.78125 -1.765625 C 4.925781 -2.015625 5 -2.273438 5 -2.546875 L 5 -3.421875 C 4.945312 -3.378906 4.851562 -3.335938 4.71875 -3.296875 C 4.582031 -3.265625 4.425781 -3.234375 4.25 -3.203125 C 4.082031 -3.171875 3.910156 -3.140625 3.734375 -3.109375 C 3.566406 -3.085938 3.421875 -3.066406 3.296875 -3.046875 C 3.046875 -3.015625 2.8125 -2.957031 2.59375 -2.875 C 2.375 -2.800781 2.195312 -2.691406 2.0625 -2.546875 C 1.9375 -2.398438 1.875 -2.207031 1.875 -1.96875 C 1.875 -1.75 1.929688 -1.5625 2.046875 -1.40625 C 2.160156 -1.257812 2.316406 -1.148438 2.515625 -1.078125 C 2.710938 -1.003906 2.941406 -0.96875 3.203125 -0.96875 Z M 3.203125 -0.96875 "/></g></g></g><g fill="#000000" fill-opacity="1"><g transform="translate(116.480629, 29.104913)"><g><path d="M 3.4375 0.15625 C 2.914062 0.15625 2.453125 0.078125 2.046875 -0.078125 C 1.648438 -0.234375 1.320312 -0.457031 1.0625 -0.75 C 0.8125 -1.050781 0.648438 -1.414062 0.578125 -1.84375 L 1.890625 -2.0625 C 1.984375 -1.695312 2.160156 -1.421875 2.421875 -1.234375 C 2.679688 -1.054688 3.019531 -0.96875 3.4375 -0.96875 C 3.875 -0.96875 4.222656 -1.0625 4.484375 -1.25 C 4.753906 -1.4375 4.890625 -1.660156 4.890625 -1.921875 C 4.890625 -2.148438 4.804688 -2.335938 4.640625 -2.484375 C 4.472656 -2.628906 4.222656 -2.738281 3.890625 -2.8125 L 2.71875 -3.0625 C 2.0625 -3.207031 1.570312 -3.441406 1.25 -3.765625 C 0.9375 -4.097656 0.78125 -4.515625 0.78125 -5.015625 C 0.78125 -5.441406 0.894531 -5.8125 1.125 -6.125 C 1.351562 -6.4375 1.671875 -6.675781 2.078125 -6.84375 C 2.484375 -7.019531 2.953125 -7.109375 3.484375 -7.109375 C 3.992188 -7.109375 4.429688 -7.03125 4.796875 -6.875 C 5.171875 -6.71875 5.46875 -6.5 5.6875 -6.21875 C 5.914062 -5.945312 6.070312 -5.625 6.15625 -5.25 L 4.890625 -5.03125 C 4.828125 -5.300781 4.679688 -5.53125 4.453125 -5.71875 C 4.234375 -5.914062 3.914062 -6.015625 3.5 -6.015625 C 3.113281 -6.015625 2.796875 -5.925781 2.546875 -5.75 C 2.296875 -5.582031 2.171875 -5.363281 2.171875 -5.09375 C 2.171875 -4.851562 2.253906 -4.660156 2.421875 -4.515625 C 2.597656 -4.378906 2.867188 -4.269531 3.234375 -4.1875 L 4.375 -3.921875 C 5.03125 -3.773438 5.515625 -3.546875 5.828125 -3.234375 C 6.148438 -2.921875 6.3125 -2.519531 6.3125 -2.03125 C 6.3125 -1.601562 6.1875 -1.222656 5.9375 -0.890625 C 5.695312 -0.566406 5.359375 -0.3125 4.921875 -0.125 C 4.492188 0.0625 4 0.15625 3.4375 0.15625 Z M 3.4375 0.15625 "/></g></g></g><g fill="#000000" fill-opacity="1"><g transform="translate(123.340389, 29.104913)"><g><path d="M 3.921875 0.140625 C 3.222656 0.140625 2.625 -0.00390625 2.125 -0.296875 C 1.625 -0.597656 1.238281 -1.019531 0.96875 -1.5625 C 0.707031 -2.101562 0.578125 -2.738281 0.578125 -3.46875 C 0.578125 -4.175781 0.707031 -4.804688 0.96875 -5.359375 C 1.238281 -5.910156 1.613281 -6.335938 2.09375 -6.640625 C 2.582031 -6.953125 3.148438 -7.109375 3.796875 -7.109375 C 4.222656 -7.109375 4.625 -7.035156 5 -6.890625 C 5.382812 -6.753906 5.722656 -6.539062 6.015625 -6.25 C 6.304688 -5.96875 6.535156 -5.601562 6.703125 -5.15625 C 6.878906 -4.707031 6.96875 -4.175781 6.96875 -3.5625 L 6.96875 -3.09375 L 1.3125 -3.09375 L 1.3125 -4.125 L 6.25 -4.125 L 5.609375 -3.796875 C 5.609375 -4.222656 5.539062 -4.597656 5.40625 -4.921875 C 5.269531 -5.253906 5.066406 -5.507812 4.796875 -5.6875 C 4.523438 -5.875 4.195312 -5.96875 3.8125 -5.96875 C 3.414062 -5.96875 3.078125 -5.875 2.796875 -5.6875 C 2.523438 -5.5 2.316406 -5.25 2.171875 -4.9375 C 2.023438 -4.632812 1.953125 -4.289062 1.953125 -3.90625 L 1.953125 -3.234375 C 1.953125 -2.765625 2.03125 -2.363281 2.1875 -2.03125 C 2.351562 -1.695312 2.582031 -1.441406 2.875 -1.265625 C 3.175781 -1.085938 3.523438 -1 3.921875 -1 C 4.191406 -1 4.4375 -1.035156 4.65625 -1.109375 C 4.875 -1.191406 5.054688 -1.304688 5.203125 -1.453125 C 5.359375 -1.609375 5.472656 -1.796875 5.546875 -2.015625 L 6.859375 -1.78125 C 6.753906 -1.394531 6.566406 -1.054688 6.296875 -0.765625 C 6.023438 -0.484375 5.6875 -0.257812 5.28125 -0.09375 C 4.875 0.0625 4.421875 0.140625 3.921875 0.140625 Z M 3.921875 0.140625 "/></g></g></g><g fill="#000000" fill-opacity="1"><g transform="translate(130.847415, 29.104913)"><g><path d="M 3.4375 0.15625 C 2.914062 0.15625 2.453125 0.078125 2.046875 -0.078125 C 1.648438 -0.234375 1.320312 -0.457031 1.0625 -0.75 C 0.8125 -1.050781 0.648438 -1.414062 0.578125 -1.84375 L 1.890625 -2.0625 C 1.984375 -1.695312 2.160156 -1.421875 2.421875 -1.234375 C 2.679688 -1.054688 3.019531 -0.96875 3.4375 -0.96875 C 3.875 -0.96875 4.222656 -1.0625 4.484375 -1.25 C 4.753906 -1.4375 4.890625 -1.660156 4.890625 -1.921875 C 4.890625 -2.148438 4.804688 -2.335938 4.640625 -2.484375 C 4.472656 -2.628906 4.222656 -2.738281 3.890625 -2.8125 L 2.71875 -3.0625 C 2.0625 -3.207031 1.570312 -3.441406 1.25 -3.765625 C 0.9375 -4.097656 0.78125 -4.515625 0.78125 -5.015625 C 0.78125 -5.441406 0.894531 -5.8125 1.125 -6.125 C 1.351562 -6.4375 1.671875 -6.675781 2.078125 -6.84375 C 2.484375 -7.019531 2.953125 -7.109375 3.484375 -7.109375 C 3.992188 -7.109375 4.429688 -7.03125 4.796875 -6.875 C 5.171875 -6.71875 5.46875 -6.5 5.6875 -6.21875 C 5.914062 -5.945312 6.070312 -5.625 6.15625 -5.25 L 4.890625 -5.03125 C 4.828125 -5.300781 4.679688 -5.53125 4.453125 -5.71875 C 4.234375 -5.914062 3.914062 -6.015625 3.5 -6.015625 C 3.113281 -6.015625 2.796875 -5.925781 2.546875 -5.75 C 2.296875 -5.582031 2.171875 -5.363281 2.171875 -5.09375 C 2.171875 -4.851562 2.253906 -4.660156 2.421875 -4.515625 C 2.597656 -4.378906 2.867188 -4.269531 3.234375 -4.1875 L 4.375 -3.921875 C 5.03125 -3.773438 5.515625 -3.546875 5.828125 -3.234375 C 6.148438 -2.921875 6.3125 -2.519531 6.3125 -2.03125 C 6.3125 -1.601562 6.1875 -1.222656 5.9375 -0.890625 C 5.695312 -0.566406 5.359375 -0.3125 4.921875 -0.125 C 4.492188 0.0625 4 0.15625 3.4375 0.15625 Z M 3.4375 0.15625 "/></g></g></g></svg>