<svg xmlns="http://www.w3.org/2000/svg" xmlns:xlink="http://www.w3.org/1999/xlink" viewBox="0 0 512 512"><defs><linearGradient id="c" x1="99.45" y1="30.68" x2="232.64" y2="261.37" gradientUnits="userSpaceOnUse"><stop offset="0" stop-color="#f3f7fe"/><stop offset=".45" stop-color="#f3f7fe"/><stop offset="1" stop-color="#deeafb"/></linearGradient><linearGradient id="a" x1="6.5" y1="2.11" x2="18.5" y2="22.89" gradientUnits="userSpaceOnUse"><stop offset="0" stop-color="#86c3db"/><stop offset=".45" stop-color="#86c3db"/><stop offset="1" stop-color="#5eafcf"/></linearGradient><linearGradient id="h" x1="62.5" y1="2.11" x2="74.5" y2="22.89" xlink:href="#a"/><linearGradient id="l" x1="118.5" y1="2.11" x2="130.5" y2="22.89" xlink:href="#a"/><linearGradient id="b" x1="34.67" y1="18.56" x2="119.21" y2="164.99" xlink:href="#a"/><symbol id="e" viewBox="0 0 172 172"><path d="M160.62 107.4c-47.17 0-85.41-37.73-85.41-84.26A83.3 83.3 0 0 1 78 2C35.27 6.61 2 42.33 2 85.73 2 132.27 40.24 170 87.41 170A85.16 85.16 0 0 0 170 106.87a88 88 0 0 1-9.38.53" stroke="#72b9d5" stroke-linecap="round" stroke-linejoin="round" stroke-width="4" fill="url(#b)"><animateTransform attributeName="transform" additive="sum" type="rotate" values="-15 86 86; 9 86 86; -15 86 86" dur="6s" repeatCount="indefinite"/></path></symbol><symbol id="f" viewBox="0 0 350 222"><path d="M291 107c-.85 0-1.68.09-2.53.13A83.9 83.9 0 0 0 135.6 42.92 55.91 55.91 0 0 0 51 91a56.6 56.6 0 0 0 .8 9.08A60 60 0 0 0 63 219c1.35 0 2.67-.11 4-.2v.2h224a56 56 0 0 0 0-112Z" stroke="#e6effc" stroke-miterlimit="10" stroke-width="6" fill="url(#c)"/></symbol><symbol id="q" viewBox="0 0 351 246"><use width="172" height="172" xlink:href="#e"/><use width="350" height="222" transform="translate(1 24)" xlink:href="#f"/></symbol><symbol id="r" viewBox="0 0 137 25" overflow="visible"><path d="M12.5.5a12 12 0 1 0 12 12 12 12 0 0 0-12-12Z" stroke="#86c3db" stroke-miterlimit="10" fill="url(#h)" opacity="0"><animateTransform id="j" attributeName="transform" additive="sum" type="translate" values="0 -46; 0 86; -18 74" begin="0s; j.end+.42s" dur=".58s" keyTimes="0; .71; 1"/><animate id="k" attributeName="opacity" values="0; 1; 1; 0" begin="0s; k.end+.42s" dur=".58s" keyTimes="0; .14; .71; 1"/></path><path d="M68.5.5a12 12 0 1 0 12 12 12 12 0 0 0-12-12Z" stroke="#86c3db" stroke-miterlimit="10" fill="url(#l)" opacity="0"><animateTransform id="m" attributeName="transform" additive="sum" type="translate" values="0 -46; 0 86; 0 74" begin=".67s; m.end+.42s" dur=".58s" keyTimes="0; .71; 1"/><animate id="n" attributeName="opacity" values="0; 1; 1; 0" begin=".67s; n.end+.42s" dur=".58s" keyTimes="0; .14; .71; 1"/></path><path d="M124.5.5a12 12 0 1 0 12 12 12 12 0 0 0-12-12Z" stroke="#86c3db" stroke-miterlimit="10" fill="url(#b)" opacity="0"><animateTransform id="o" attributeName="transform" additive="sum" type="translate" values="0 -46; 0 86; 18 74" begin=".33s; o.end+.42s" dur=".58s" keyTimes="0; .71; 1"/><animate id="p" attributeName="opacity" values="0; 1; 1; 0" begin=".33s; p.end+.42s" dur=".58s" keyTimes="0; .14; .71; 1"/></path></symbol></defs><use width="351" height="246" transform="translate(80 121)" xlink:href="#q"/><use width="137" height="25" transform="translate(187.5 349.5)" xlink:href="#r"/></svg>