<svg xmlns="http://www.w3.org/2000/svg" xmlns:xlink="http://www.w3.org/1999/xlink" viewBox="0 0 512 512"><defs><linearGradient id="c" x1="99.45" y1="30.68" x2="232.64" y2="261.37" gradientUnits="userSpaceOnUse"><stop offset="0" stop-color="#f3f7fe"/><stop offset=".45" stop-color="#f3f7fe"/><stop offset="1" stop-color="#deeafb"/></linearGradient><linearGradient id="b" x1="34.67" y1="18.56" x2="119.21" y2="164.99" gradientUnits="userSpaceOnUse"><stop offset="0" stop-color="#86c3db"/><stop offset=".45" stop-color="#86c3db"/><stop offset="1" stop-color="#5eafcf"/></linearGradient><linearGradient id="a" x1="1381.32" y1="-1144.67" x2="1399.47" y2="-1097.39" gradientTransform="rotate(-9 8002.567 8233.063)" gradientUnits="userSpaceOnUse"><stop offset="0" stop-color="#0b65ed"/><stop offset=".45" stop-color="#0a5ad4"/><stop offset="1" stop-color="#0950bc"/></linearGradient><linearGradient id="k" x1="1436.71" y1="-1137" x2="1454.86" y2="-1089.72" gradientTransform="rotate(-9 8009.537 8233.037)" xlink:href="#a"/><linearGradient id="n" x1="1492.12" y1="-1129.34" x2="1510.27" y2="-1082.06" gradientTransform="rotate(-9 8016.566 8233.078)" xlink:href="#a"/><symbol id="e" viewBox="0 0 172 172"><path d="M160.62 107.4c-47.17 0-85.41-37.73-85.41-84.26A83.3 83.3 0 0 1 78 2C35.27 6.61 2 42.33 2 85.73 2 132.27 40.24 170 87.41 170A85.16 85.16 0 0 0 170 106.87a88 88 0 0 1-9.38.53" stroke="#72b9d5" stroke-linecap="round" stroke-linejoin="round" stroke-width="4" fill="url(#b)"><animateTransform attributeName="transform" additive="sum" type="rotate" values="-15 86 86; 9 86 86; -15 86 86" dur="6s" repeatCount="indefinite"/></path></symbol><symbol id="f" viewBox="0 0 350 222"><path d="M291 107c-.85 0-1.68.09-2.53.13A83.9 83.9 0 0 0 135.6 42.92 55.91 55.91 0 0 0 51 91a56.6 56.6 0 0 0 .8 9.08A60 60 0 0 0 63 219c1.35 0 2.67-.11 4-.2v.2h224a56 56 0 0 0 0-112Z" stroke="#e6effc" stroke-miterlimit="10" stroke-width="6" fill="url(#c)"/></symbol><symbol id="q" viewBox="0 0 351 246"><use width="172" height="172" xlink:href="#e"/><use width="350" height="222" transform="translate(1 24)" xlink:href="#f"/></symbol><symbol id="r" viewBox="0 0 129 57" overflow="visible"><path d="M8.5 56.5a8 8 0 0 1-8-8v-40a8 8 0 0 1 16 0v40a8 8 0 0 1-8 8Z" stroke="#0a5ad4" stroke-miterlimit="10" fill="url(#a)" opacity="0"><animateTransform id="g" attributeName="transform" additive="sum" type="translate" values="0 -60; 0 60" begin="0s; g.end+.33s" dur=".67s"/><animate id="h" attributeName="opacity" values="0; 1; 0" begin="0s; h.end+.33s" dur=".67s" keyTimes="0; .25; 1"/></path><path d="M64.5 56.5a8 8 0 0 1-8-8v-40a8 8 0 0 1 16 0v40a8 8 0 0 1-8 8Z" stroke="#0a5ad4" stroke-miterlimit="10" fill="url(#k)" opacity="0"><animateTransform id="l" attributeName="transform" additive="sum" type="translate" values="0 -60; 0 60" begin=".33s; l.end+.33s" dur=".67s"/><animate id="m" attributeName="opacity" values="0; 1; 0" begin=".33s; m.end+.33s" dur=".67s" keyTimes="0; .25; 1"/></path><path d="M120.5 56.5a8 8 0 0 1-8-8v-40a8 8 0 0 1 16 0v40a8 8 0 0 1-8 8Z" stroke="#0a5ad4" stroke-miterlimit="10" fill="url(#n)" opacity="0"><animateTransform id="o" attributeName="transform" additive="sum" type="translate" values="0 -60; 0 60" begin="-.33s; o.end+.33s" dur=".67s"/><animate id="p" attributeName="opacity" values="0; 1; 0" begin="-.33s; p.end+.33s" dur=".67s" keyTimes="0; .25; 1"/></path></symbol></defs><use width="351" height="246" transform="translate(80 121)" xlink:href="#q"/><use width="129" height="57" transform="translate(191.5 343.5)" xlink:href="#r"/></svg>