<svg xmlns="http://www.w3.org/2000/svg" xmlns:xlink="http://www.w3.org/1999/xlink" viewBox="0 0 512 512"><defs><linearGradient id="d" x1="99.45" y1="30.68" x2="232.64" y2="261.37" gradientUnits="userSpaceOnUse"><stop offset="0" stop-color="#f3f7fe"/><stop offset=".45" stop-color="#f3f7fe"/><stop offset="1" stop-color="#deeafb"/></linearGradient><linearGradient id="a" x1="1381.32" y1="-1144.67" x2="1399.47" y2="-1097.39" gradientTransform="rotate(-9 8002.567 8233.063)" gradientUnits="userSpaceOnUse"><stop offset="0" stop-color="#0b65ed"/><stop offset=".45" stop-color="#0a5ad4"/><stop offset="1" stop-color="#0950bc"/></linearGradient><linearGradient id="k" x1="1436.71" y1="-1137" x2="1454.86" y2="-1089.72" gradientTransform="rotate(-9 8009.537 8233.037)" xlink:href="#a"/><linearGradient id="n" x1="1492.12" y1="-1129.34" x2="1510.27" y2="-1082.06" gradientTransform="rotate(-9 8016.566 8233.078)" xlink:href="#a"/><linearGradient id="b" x1="78" y1="63.35" x2="118" y2="132.65" gradientUnits="userSpaceOnUse"><stop offset="0" stop-color="#fbbf24"/><stop offset=".45" stop-color="#fbbf24"/><stop offset="1" stop-color="#f59e0b"/></linearGradient><symbol id="e" viewBox="0 0 196 196"><circle cx="98" cy="98" r="40" stroke="#f8af18" stroke-miterlimit="10" stroke-width="4" fill="url(#b)"/><path d="M98 31.38V6m0 184v-25.38m47.11-113.73L163.05 33M33 163.05l17.94-17.94m0-94.22L33 33m130.1 130.1-17.94-17.94M6 98h25.38M190 98h-25.38" fill="none" stroke="#fbbf24" stroke-linecap="round" stroke-miterlimit="10" stroke-width="12"><animateTransform attributeName="transform" additive="sum" type="rotate" values="0 98 98; 45 98 98" dur="6s" repeatCount="indefinite"/></path></symbol><symbol id="g" viewBox="0 0 350 222"><path d="M291 107c-.85 0-1.68.09-2.53.13A83.9 83.9 0 0 0 135.6 42.92 55.91 55.91 0 0 0 51 91a56.6 56.6 0 0 0 .8 9.08A60 60 0 0 0 63 219c1.35 0 2.67-.11 4-.2v.2h224a56 56 0 0 0 0-112Z" stroke="#e6effc" stroke-miterlimit="10" stroke-width="6" fill="url(#d)"/></symbol><symbol id="q" viewBox="0 0 363 258"><use width="196" height="196" xlink:href="#e"/><use width="350" height="222" transform="translate(13 36)" xlink:href="#g"/></symbol><symbol id="r" viewBox="0 0 129 57" overflow="visible"><path d="M8.5 56.5a8 8 0 0 1-8-8v-40a8 8 0 0 1 16 0v40a8 8 0 0 1-8 8Z" stroke="#0a5ad4" stroke-miterlimit="10" fill="url(#a)" opacity="0"><animateTransform id="i" attributeName="transform" additive="sum" type="translate" values="0 -60; 0 60" begin="0s; i.end+.33s" dur=".67s"/><animate id="j" attributeName="opacity" values="0; 1; 0" begin="0s; j.end+.33s" dur=".67s" keyTimes="0; .25; 1"/></path><path d="M64.5 56.5a8 8 0 0 1-8-8v-40a8 8 0 0 1 16 0v40a8 8 0 0 1-8 8Z" stroke="#0a5ad4" stroke-miterlimit="10" fill="url(#k)" opacity="0"><animateTransform id="l" attributeName="transform" additive="sum" type="translate" values="0 -60; 0 60" begin=".33s; l.end+.33s" dur=".67s"/><animate id="m" attributeName="opacity" values="0; 1; 0" begin=".33s; m.end+.33s" dur=".67s" keyTimes="0; .25; 1"/></path><path d="M120.5 56.5a8 8 0 0 1-8-8v-40a8 8 0 0 1 16 0v40a8 8 0 0 1-8 8Z" stroke="#0a5ad4" stroke-miterlimit="10" fill="url(#n)" opacity="0"><animateTransform id="o" attributeName="transform" additive="sum" type="translate" values="0 -60; 0 60" begin="-.33s; o.end+.33s" dur=".67s"/><animate id="p" attributeName="opacity" values="0; 1; 0" begin="-.33s; p.end+.33s" dur=".67s" keyTimes="0; .25; 1"/></path></symbol></defs><use width="363" height="258" transform="translate(68 109)" xlink:href="#q"/><use width="129" height="57" transform="translate(191.5 343.5)" xlink:href="#r"/></svg>