<svg width="24" height="24" viewBox="0 0 24 24" fill="none" xmlns="http://www.w3.org/2000/svg"><path d="M12 2c5.523 0 10 4.477 10 10s-4.477 10-10 10S2 17.523 2 12 6.477 2 12 2" fill="url(#a)"/><g><animateTransform attributeName="transform" type="scale" values="0.8;1.22;0.95;1.04;1" keyTimes="0;0.3;0.6;0.82;1" dur="0.35s" fill="freeze"/><path d="m15.22 8.97-4.47 4.47-1.97-1.97a.75.75 0 0 0-1.06 1.06l2.5 2.5a.75.75 0 0 0 1.06 0l5-5a.75.75 0 1 0-1.06-1.06" fill="url(#b)"/></g><defs><linearGradient id="a" x1="2.714" y1="5.75" x2="16.517" y2="20.09" gradientUnits="userSpaceOnUse"><stop stop-color="#52d17c"/><stop offset="1" stop-color="#22918b"/></linearGradient><linearGradient id="b" x1="9.188" y1="9.413" x2="10.681" y2="16.713" gradientUnits="userSpaceOnUse"><stop stop-color="#fff"/><stop offset="1" stop-color="#e3ffd9"/></linearGradient></defs></svg>