<svg width="24" height="24" viewBox="0 0 24 24" fill="none" xmlns="http://www.w3.org/2000/svg"><path d="M12 2c5.523 0 10 4.477 10 10s-4.477 10-10 10S2 17.523 2 12 6.477 2 12 2" fill="url(#a)"/><path d="m15.53 8.47-.084-.073a.75.75 0 0 0-.882-.007l-.094.08L12 10.939l-2.47-2.47-.084-.072a.75.75 0 0 0-.882-.007l-.094.08-.073.084a.75.75 0 0 0-.007.882l.08.094L10.939 12l-2.47 2.47-.072.084a.75.75 0 0 0-.007.882l.08.094.084.073a.75.75 0 0 0 .882.007l.094-.08L12 13.061l2.47 2.47.084.072a.75.75 0 0 0 .882.007l.094-.08.073-.084a.75.75 0 0 0 .007-.882l-.08-.094L13.061 12l2.47-2.47.072-.084a.75.75 0 0 0 .007-.882z" fill="url(#b)"/><defs><linearGradient id="a" x1="5.125" y1="3.25" x2="18.25" y2="22.625" gradientUnits="userSpaceOnUse"><stop stop-color="#f83f54"/><stop offset="1" stop-color="#ca2134"/></linearGradient><linearGradient id="b" x1="8.685" y1="12.332" x2="12.591" y2="16.392" gradientUnits="userSpaceOnUse"><stop stop-color="#fdfdfd"/><stop offset="1" stop-color="#fecbe6"/></linearGradient></defs></svg>