<svg width="24" height="24" viewBox="0 0 24 24" fill="none" xmlns="http://www.w3.org/2000/svg"><path d="M15.247 20.258a2.25 2.25 0 0 1-2.019 1.736l-.173.006h-2.111a2.25 2.25 0 0 1-2.147-1.576l-.046-.168-.405-1.756h7.308z" fill="url(#a)"/><path d="M15.247 20.258a2.25 2.25 0 0 1-2.019 1.736l-.173.006h-2.111a2.25 2.25 0 0 1-2.147-1.576l-.046-.168-.405-1.756h7.308z" fill="url(#b)"/><path d="M8.23 18h7.54l.644-2.783a.25.25 0 0 1 .07-.125c1.83-1.747 2.766-3.704 2.766-5.84a7.25 7.25 0 1 0-14.5 0c0 2.136.936 4.093 2.767 5.84a.25.25 0 0 1 .071.125z" fill="url(#c)"/><path d="m8.46 19-.346-1.5h7.772l-.348 1.5z" fill="url(#d)"/><defs><radialGradient id="a" cx="0" cy="0" r="1" gradientUnits="userSpaceOnUse" gradientTransform="rotate(71.806 -1.52 8.91)scale(14.468 24.6328)"><stop stop-color="#ffe06b"/><stop offset=".376" stop-color="#ffa43d"/><stop offset="1" stop-color="#e67505"/></radialGradient><radialGradient id="c" cx="0" cy="0" r="1" gradientUnits="userSpaceOnUse" gradientTransform="rotate(74.837 .961 6.69)scale(18.226 26.4109)"><stop stop-color="#ffe06b"/><stop offset=".376" stop-color="#ffa43d"/><stop offset="1" stop-color="#e67505"/></radialGradient><linearGradient id="b" x1="11.999" y1="18.5" x2="11.999" y2="22" gradientUnits="userSpaceOnUse"><stop stop-color="#d34719"/><stop offset="1" stop-color="#d34719" stop-opacity="0"/></linearGradient><linearGradient id="d" x1="11.385" y1="18.095" x2="12.725" y2="20.874" gradientUnits="userSpaceOnUse"><stop stop-color="#ffc7a3"/><stop offset="1" stop-color="#ff9c70"/></linearGradient></defs></svg>