<svg width="24" height="24" viewBox="0 0 24 24" fill="none" xmlns="http://www.w3.org/2000/svg"><g><animateTransform attributeName="transform" type="rotate" values="0 12 4; -12 12 4; 10 12 4; -7 12 4; 4 12 4; -2 12 4; 0 12 4" keyTimes="0; 0.12; 0.28; 0.45; 0.65; 0.82; 1" dur="2.4s" repeatCount="indefinite"/><path d="M15 18a3 3 0 1 1-6 0 3 3 0 0 1 6 0" fill="url(#a)"/><path d="M12 2.004a7.5 7.5 0 0 1 7.5 7.5v3.998l1.418 3.16a.95.95 0 0 1-.866 1.34h-16.1a.95.95 0 0 1-.867-1.339l1.415-3.16V9.49l.005-.25A7.5 7.5 0 0 1 12 2.004" fill="url(#b)"/></g><defs><linearGradient id="a" x1="12" y1="17.5" x2="12.019" y2="20.999" gradientUnits="userSpaceOnUse"><stop stop-color="#eb4824"/><stop offset="1" stop-color="#ffcd0f" stop-opacity=".988"/></linearGradient><linearGradient id="b" x1="21.027" y1="17.995" x2="5.578" y2="3.776" gradientUnits="userSpaceOnUse"><stop stop-color="#ff6f47"/><stop offset="1" stop-color="#ffcd0f"/></linearGradient></defs></svg>