<svg width="24" height="24" viewBox="0 0 24 24" fill="none" xmlns="http://www.w3.org/2000/svg"><path d="M15 18a3 3 0 1 1-6 0 3 3 0 0 1 6 0" fill="url(#a)"/><path d="M12 2.004a7.5 7.5 0 0 1 7.5 7.5v3.998l1.418 3.16a.95.95 0 0 1-.866 1.34h-16.1a.95.95 0 0 1-.867-1.339l1.415-3.16V9.49l.005-.25A7.5 7.5 0 0 1 12 2.004" fill="url(#b)"/><path d="M12 2.004a7.5 7.5 0 0 1 7.5 7.5v3.998l1.418 3.16a.95.95 0 0 1-.866 1.34h-16.1a.95.95 0 0 1-.867-1.339l1.415-3.16V9.49l.005-.25A7.5 7.5 0 0 1 12 2.004" fill="url(#c)" fill-opacity=".2"/><path d="M18.5 8a2.5 2.5 0 1 0 0-5 2.5 2.5 0 0 0 0 5" fill="url(#d)"/><defs><linearGradient id="a" x1="12" y1="17.5" x2="12.019" y2="20.999" gradientUnits="userSpaceOnUse"><stop stop-color="#eb4824"/><stop offset="1" stop-color="#ffcd0f" stop-opacity=".988"/></linearGradient><linearGradient id="b" x1="21.027" y1="17.995" x2="4.945" y2="4.464" gradientUnits="userSpaceOnUse"><stop stop-color="#ff6f47"/><stop offset="1" stop-color="#ffcd0f"/></linearGradient><linearGradient id="d" x1="16.179" y1="3.938" x2="20.107" y2="7.063" gradientUnits="userSpaceOnUse"><stop stop-color="#f83f54"/><stop offset="1" stop-color="#b91d6b"/></linearGradient><radialGradient id="c" cx="0" cy="0" r="1" gradientUnits="userSpaceOnUse" gradientTransform="rotate(131.987 7.803 7.37)scale(6.72681 7.33035)"><stop offset=".253" stop-color="#ffe994"/><stop offset=".648" stop-color="#ffe994" stop-opacity="0"/></radialGradient></defs></svg>