<svg xmlns="http://www.w3.org/2000/svg" width="254" height="349.247" viewBox="0 0 254 349.247" xml:space="preserve"><path class="a" d="M7.334 22H0v5.334a2 2 0 0 0 2 2h5.334z" style="fill:#00832d" transform="scale(11.90588)"/><path class="b" d="M7.334 0H2a2 2 0 0 0-2 2v20h7.334V7.334H14V0Z" style="fill:#ffba00" transform="scale(11.90588)"/><path class="c" d="M21.334 22H14v7.334h5.334a2 2 0 0 0 2-2z" style="fill:#0066da" transform="scale(11.90588)"/><path class="d" d="M14 22H7.334v7.334H14Z" style="fill:#00ac47" transform="scale(11.90588)"/><path class="e" d="M14 7.334V22h7.334V7.334Z" style="fill:#2684fc" transform="scale(11.90588)"/><path class="f" d="M14 0v7.334h7.334z" style="fill:#ea4335" transform="scale(11.90588)"/></svg>