<svg viewBox="0 0 24 24" xmlns="http://www.w3.org/2000/svg"><path d="M11.996 19.01a.75.75 0 0 1 .743.649l.007.102v1.5a.75.75 0 0 1-1.493.101l-.007-.101v-1.5a.75.75 0 0 1 .75-.75Zm6.022-2.072 1.06 1.06a.75.75 0 1 1-1.06 1.061l-1.06-1.06a.75.75 0 0 1 1.06-1.061m-10.983 0a.75.75 0 0 1 0 1.06L5.974 19.06A.75.75 0 0 1 4.914 18l1.06-1.061a.75.75 0 0 1 1.06 0ZM12 6.475a5.525 5.525 0 1 1 0 11.05 5.525 5.525 0 0 1 0-11.05m0 1.5a4.025 4.025 0 1 0 0 8.05 4.025 4.025 0 0 0 0-8.05m9.25 3.293a.75.75 0 0 1 .102 1.493l-.102.007h-1.5a.75.75 0 0 1-.102-1.493l.102-.007zm-17-.029a.75.75 0 0 1 .102 1.494l-.102.006h-1.5a.75.75 0 0 1-.102-1.493l.102-.007zm1.64-6.37.084.072 1.06 1.06a.75.75 0 0 1-.976 1.134l-.084-.073-1.06-1.06a.75.75 0 0 1 .976-1.134Zm13.188.072a.75.75 0 0 1 .073.977l-.073.084-1.06 1.06a.75.75 0 0 1-1.133-.976l.072-.084 1.06-1.061a.75.75 0 0 1 1.061 0M12 1.99a.75.75 0 0 1 .743.648l.007.102v1.5a.75.75 0 0 1-1.493.101l-.007-.102v-1.5a.75.75 0 0 1 .75-.75Z" fill="currentColor"/></svg>