<svg xmlns="http://www.w3.org/2000/svg" fill="none" viewBox="0 0 128 128"><g id="pollen-weed__pollen-weed" clip-path="url(#pollen-weed__clip0_3104_25709)"><g id="pollen-weed__Weed"><path id="pollen-weed__Vector" fill="url(#pollen-weed__paint0_linear_3104_25709)" stroke="#65a30d" stroke-linecap="round" stroke-miterlimit="10" d="m62.516 66.28-.165-.148c-2.292-2.071-5.883-6.343-5.883-13.594 0-9.118 5.653-13.641 7.3-14.943h.002l.01-.008a.35.35 0 0 1 .416-.032l.068.045h0c1.66 1.312 7.35 5.808 7.35 14.938 0 7.272-3.592 11.532-5.883 13.596l-.166.15v7.51l.943-1.777c1.299-2.453 3.47-5.13 7.154-7.253 7.906-4.56 14.638-1.929 16.6-1.133l.083.033c.116.086.171.219.151.386-.293 2.076-1.402 9.248-9.274 13.804-6.47 3.743-12.127 2.582-14.996 1.61l-.66-.222v9.803c0 .787-.666 1.455-1.525 1.455s-1.525-.668-1.525-1.455V79.21l-.663.228c-2.844.976-8.545 2.192-15.075-1.585-7.872-4.556-8.982-11.728-9.275-13.804-.02-.168.036-.301.152-.387l.082-.032c1.963-.796 8.695-3.426 16.6 1.133 3.76 2.167 5.945 4.909 7.234 7.403l.945 1.827z"/></g><g id="pollen-weed__Pollen"><path id="pollen-weed__Pollen 7" fill="url(#pollen-weed__paint1_linear_3104_25709)" stroke="#facc15" d="M90 47.5a2.5 2.5 0 1 1 0 5 2.5 2.5 0 0 1 0-5Z"><animateTransform attributeName="transform" begin="0s" calcMode="spline" dur="3s" keySplines=".42 0 .58 1" repeatCount="indefinite" type="translate" values="0 0;8 -4"/><animate attributeName="opacity" begin="0s" dur="3s" keyTimes="0;0.2;0.8;1" repeatCount="indefinite" values="0;1;1;0"/></path><path id="pollen-weed__Pollen 6" fill="url(#pollen-weed__paint2_linear_3104_25709)" stroke="#facc15" d="M80 38.5a1.5 1.5 0 1 1 0 3 1.5 1.5 0 0 1 0-3Z"><animateTransform attributeName="transform" begin="-2.65s" calcMode="spline" dur="3s" keySplines=".42 0 .58 1" repeatCount="indefinite" type="translate" values="0 0;8 -4"/><animate attributeName="opacity" begin="-2.65s" dur="3s" keyTimes="0;0.2;0.8;1" repeatCount="indefinite" values="0;1;1;0"/></path><path id="pollen-weed__Pollen 5" fill="url(#pollen-weed__paint3_linear_3104_25709)" stroke="#facc15" d="M74 44.5a3.5 3.5 0 1 1 0 7 3.5 3.5 0 0 1 0-7Z"><animateTransform attributeName="transform" begin="-2.3s" calcMode="spline" dur="3s" keySplines=".42 0 .58 1" repeatCount="indefinite" type="translate" values="0 0;8 -4"/><animate attributeName="opacity" begin="-2.3s" dur="3s" keyTimes="0;0.2;0.8;1" repeatCount="indefinite" values="0;1;1;0"/></path><path id="pollen-weed__Pollen 4" fill="url(#pollen-weed__paint4_linear_3104_25709)" stroke="#facc15" d="M64 35.5a2.5 2.5 0 1 1 0 5 2.5 2.5 0 0 1 0-5Z"><animateTransform attributeName="transform" begin="-1.9500000000000002s" calcMode="spline" dur="3s" keySplines=".42 0 .58 1" repeatCount="indefinite" type="translate" values="0 0;8 -4"/><animate attributeName="opacity" begin="-1.9500000000000002s" dur="3s" keyTimes="0;0.2;0.8;1" repeatCount="indefinite" values="0;1;1;0"/></path><path id="pollen-weed__Pollen 3" fill="url(#pollen-weed__paint5_linear_3104_25709)" stroke="#facc15" d="M54 44.5a3.5 3.5 0 1 1 0 7 3.5 3.5 0 0 1 0-7Z"><animateTransform attributeName="transform" begin="-1.6s" calcMode="spline" dur="3s" keySplines=".42 0 .58 1" repeatCount="indefinite" type="translate" values="0 0;8 -4"/><animate attributeName="opacity" begin="-1.6s" dur="3s" keyTimes="0;0.2;0.8;1" repeatCount="indefinite" values="0;1;1;0"/></path><path id="pollen-weed__Pollen 2" fill="url(#pollen-weed__paint6_linear_3104_25709)" stroke="#facc15" d="M48 38.5a1.5 1.5 0 1 1 0 3 1.5 1.5 0 0 1 0-3Z"><animateTransform attributeName="transform" begin="-1.25s" calcMode="spline" dur="3s" keySplines=".42 0 .58 1" repeatCount="indefinite" type="translate" values="0 0;8 -4"/><animate attributeName="opacity" begin="-1.25s" dur="3s" keyTimes="0;0.2;0.8;1" repeatCount="indefinite" values="0;1;1;0"/></path><path id="pollen-weed__Pollen 1" fill="url(#pollen-weed__paint7_linear_3104_25709)" stroke="#facc15" d="M38 47.5a2.5 2.5 0 1 1 0 5 2.5 2.5 0 0 1 0-5Z"><animateTransform attributeName="transform" begin="-0.9000000000000004s" calcMode="spline" dur="3s" keySplines=".42 0 .58 1" repeatCount="indefinite" type="translate" values="0 0;8 -4"/><animate attributeName="opacity" begin="-0.9000000000000004s" dur="3s" keyTimes="0;0.2;0.8;1" repeatCount="indefinite" values="0;1;1;0"/></path></g></g><defs><linearGradient id="pollen-weed__paint0_linear_3104_25709" x1="64" x2="64" y1="37" y2="109" gradientUnits="userSpaceOnUse"><stop stop-color="#84cc16"/><stop offset="1" stop-color="#65a30d"/></linearGradient><linearGradient id="pollen-weed__paint1_linear_3104_25709" x1="90" x2="90" y1="47.513" y2="51.461" gradientUnits="userSpaceOnUse"><stop stop-color="#fde047"/><stop offset="1" stop-color="#facc15"/></linearGradient><linearGradient id="pollen-weed__paint2_linear_3104_25709" x1="80" x2="80" y1="38.342" y2="40.974" gradientUnits="userSpaceOnUse"><stop stop-color="#fde047"/><stop offset="1" stop-color="#facc15"/></linearGradient><linearGradient id="pollen-weed__paint3_linear_3104_25709" x1="74" x2="74" y1="44.684" y2="49.947" gradientUnits="userSpaceOnUse"><stop stop-color="#fde047"/><stop offset="1" stop-color="#facc15"/></linearGradient><linearGradient id="pollen-weed__paint4_linear_3104_25709" x1="64" x2="64" y1="35.513" y2="39.461" gradientUnits="userSpaceOnUse"><stop stop-color="#fde047"/><stop offset="1" stop-color="#facc15"/></linearGradient><linearGradient id="pollen-weed__paint5_linear_3104_25709" x1="54" x2="54" y1="44.684" y2="49.947" gradientUnits="userSpaceOnUse"><stop stop-color="#fde047"/><stop offset="1" stop-color="#facc15"/></linearGradient><linearGradient id="pollen-weed__paint6_linear_3104_25709" x1="48" x2="48" y1="38.342" y2="40.974" gradientUnits="userSpaceOnUse"><stop stop-color="#fde047"/><stop offset="1" stop-color="#facc15"/></linearGradient><linearGradient id="pollen-weed__paint7_linear_3104_25709" x1="38" x2="38" y1="47.513" y2="51.461" gradientUnits="userSpaceOnUse"><stop stop-color="#fde047"/><stop offset="1" stop-color="#facc15"/></linearGradient><clipPath id="pollen-weed__clip0_3104_25709"><rect width="128" height="128" fill="#fff"/></clipPath></defs></svg>