<svg xmlns="http://www.w3.org/2000/svg" fill="none" viewBox="0 0 128 128"><g clip-path="url(#a)"><g fill="#dc2626"><circle cx="64" cy="83" r="9"/><rect width="6" height="29" x="61" y="50" rx="3"><animateTransform attributeName="transform" begin="0s" calcMode="spline" dur="3s" keySplines=".42 0 .58 1; .42 0 .58 1" repeatCount="indefinite" type="translate" values="0 0;0 -2;0 0"/></rect></g><path fill="url(#b)" stroke="#bfdbfe" stroke-linecap="round" stroke-linejoin="round" d="M50.5 83.191a13.05 13.05 0 0 1 1.523-6.14 13.5 13.5 0 0 1 4.261-4.776.5.5 0 0 0 .216-.41V38.778a7.17 7.17 0 0 1 2.191-5.142A7.62 7.62 0 0 1 64 31.5a7.62 7.62 0 0 1 5.309 2.137 7.17 7.17 0 0 1 2.191 5.142v3.268H65a.5.5 0 0 0 0 1h6.5v6.78H65a.5.5 0 1 0 0 1h6.5v6.778H65a.5.5 0 0 0 0 1h6.5V71.84a.5.5 0 0 0 .216.411 13.5 13.5 0 0 1 4.266 4.787A13.05 13.05 0 0 1 77.5 83.19v.002C77.5 90.543 71.48 96.5 64 96.5s-13.5-5.957-13.5-13.308z"/><g fill="#ef4444"><path d="M92.668 70.997a1.33 1.33 0 0 1-.943-.388l-5.724-5.693-5.725 5.695c-.256.25-.593.39-.943.39s-.687-.14-.942-.39a1.3 1.3 0 0 1-.29-.426 1.33 1.33 0 0 1 .29-1.45l6.666-6.632c.256-.25.593-.389.943-.389s.687.14.943.39l6.666 6.632c.124.12.222.265.29.426a1.33 1.33 0 0 1-.29 1.45c-.254.25-.591.388-.941.385"><animate attributeName="opacity" begin="0s" calcMode="spline" dur="2s" keySplines=".42 0 .58 1; .42 0 .58 1; .42 0 .58 1" keyTimes="0;0.3;0.7;1" repeatCount="indefinite" values="0.25;1;1;0.25"/></path><path d="M92.668 62.64a1.33 1.33 0 0 1-.943-.389l-5.724-5.692-5.725 5.695a1.35 1.35 0 0 1-.943.39 1.35 1.35 0 0 1-1.231-.816 1.33 1.33 0 0 1 .288-1.45l6.667-6.632c.256-.25.593-.389.943-.389s.687.14.943.389l6.666 6.633c.124.12.222.265.29.426a1.33 1.33 0 0 1-.29 1.45c-.254.25-.591.387-.941.385"><animate attributeName="opacity" begin="-1.5s" calcMode="spline" dur="2s" keySplines=".42 0 .58 1; .42 0 .58 1; .42 0 .58 1" keyTimes="0;0.3;0.7;1" repeatCount="indefinite" values="0.25;1;1;0.25"/></path><path d="M92.668 54.283a1.33 1.33 0 0 1-.943-.389l-5.724-5.692-5.725 5.695a1.35 1.35 0 0 1-.943.389 1.35 1.35 0 0 1-1.231-.815 1.33 1.33 0 0 1 0-1.023q.102-.245.288-.427l6.667-6.632c.256-.25.593-.389.943-.389s.687.139.943.389l6.666 6.632q.187.182.29.427a1.33 1.33 0 0 1-.29 1.449 1.33 1.33 0 0 1-.941.386"><animate attributeName="opacity" begin="-1s" calcMode="spline" dur="2s" keySplines=".42 0 .58 1; .42 0 .58 1; .42 0 .58 1" keyTimes="0;0.3;0.7;1" repeatCount="indefinite" values="0.25;1;1;0.25"/></path></g></g><defs><linearGradient id="b" x1="64" x2="64" y1="31" y2="97.121" gradientUnits="userSpaceOnUse"><stop stop-color="#dbeafe" stop-opacity=".25"/><stop offset="1" stop-color="#bfdbfe" stop-opacity=".25"/></linearGradient><clipPath id="a"><path fill="#fff" d="M0 0h128v128H0z"/></clipPath></defs></svg>