<svg width="24" height="24" viewBox="0 0 24 24" fill="none" xmlns="http://www.w3.org/2000/svg"><path d="M3 5.25A2.25 2.25 0 0 1 5.25 3h5a2.25 2.25 0 0 1 2.25 2.25V11a1 1 0 0 1-1 1H4a1 1 0 0 1-1-1z" fill="url(#a)"/><path d="M18.75 11.5A2.25 2.25 0 0 1 21 13.75v5A2.25 2.25 0 0 1 18.75 21H13a1 1 0 0 1-1-1v-7.5a1 1 0 0 1 1-1z" fill="url(#b)"/><path d="M12.5 20a1 1 0 0 1-1 1H5.25A2.25 2.25 0 0 1 3 18.75V12.5a1 1 0 0 1 1-1h7.5a1 1 0 0 1 1 1z" fill="url(#c)"/><path d="M15.41 2.159a2.25 2.25 0 0 1 3.182 0l3.252 3.251a2.25 2.25 0 0 1 0 3.182l-3.252 3.252a2.25 2.25 0 0 1-3.182 0l-3.25-3.252a2.25 2.25 0 0 1 0-3.182z" fill="url(#d)"/><defs><linearGradient id="a" x1="3" y1="3" x2="11.987" y2="12.486" gradientUnits="userSpaceOnUse"><stop stop-color="#b9c0c7"/><stop offset="1" stop-color="#889096"/></linearGradient><linearGradient id="b" x1="21" y1="20.321" x2="12.191" y2="11.976" gradientUnits="userSpaceOnUse"><stop stop-color="#63686e"/><stop offset="1" stop-color="#889096"/></linearGradient><linearGradient id="c" x1="3" y1="11.5" x2="12.5" y2="17.607" gradientUnits="userSpaceOnUse"><stop stop-color="#55595e"/><stop offset="1" stop-color="#383b3d"/></linearGradient><linearGradient id="d" x1="20.565" y1="10.002" x2="14.385" y2="2.38" gradientUnits="userSpaceOnUse"><stop stop-color="#2764e7"/><stop offset="1" stop-color="#36dff1"/></linearGradient></defs></svg>