<svg width="24" height="24" viewBox="0 0 24 24" fill="none" xmlns="http://www.w3.org/2000/svg"><path d="M19 2.75a.75.75 0 0 0-.75-.75H5.75a.75.75 0 0 0-.75.75v9.75h14z" fill="url(#a)"/><path d="M5 12v2.252a2.25 2.25 0 0 0 2.25 2.25H10V20a2 2 0 1 0 4 0v-3.498h2.75a2.25 2.25 0 0 0 2.25-2.25V12z" fill="url(#b)"/><path d="M5 12a1 1 0 0 1 1-1h12a1 1 0 0 1 1 1v.5H5z" fill="url(#c)"/><path d="M12.5 5.252V2H14v3.252a.75.75 0 0 1-1.5 0" fill="url(#d)"/><path d="M15 6.251V2h1.5v4.251a.75.75 0 0 1-1.5 0" fill="url(#e)"/><defs><linearGradient id="a" x1="9.2" y1="-1.281" x2="15.448" y2="16.05" gradientUnits="userSpaceOnUse"><stop offset=".085" stop-color="#ffcd0f"/><stop offset=".991" stop-color="#e67505"/></linearGradient><linearGradient id="b" x1="5" y1="8.471" x2="5.857" y2="24.589" gradientUnits="userSpaceOnUse"><stop offset=".125" stop-color="#ac80ff"/><stop offset="1" stop-color="#5750e2"/></linearGradient><linearGradient id="c" x1="8.329" y1="11.199" x2="8.443" y2="12.891" gradientUnits="userSpaceOnUse"><stop offset=".125" stop-color="#9c6cfe"/><stop offset="1" stop-color="#5750e2"/></linearGradient><linearGradient id="d" x1="12.5" y1=".611" x2="16.548" y2="5.929" gradientUnits="userSpaceOnUse"><stop stop-color="#ff921f"/><stop offset="1" stop-color="#eb4824"/></linearGradient><linearGradient id="e" x1="12.5" y1=".611" x2="16.548" y2="5.929" gradientUnits="userSpaceOnUse"><stop stop-color="#ff921f"/><stop offset="1" stop-color="#eb4824"/></linearGradient></defs></svg>