<svg width="24" height="24" viewBox="0 0 24 24" fill="none" xmlns="http://www.w3.org/2000/svg"><path d="M6 22h12a2 2 0 0 0 2-2V9l-5-2-2-5H6a2 2 0 0 0-2 2v16a2 2 0 0 0 2 2" fill="url(#a)"/><path d="M6 22h12a2 2 0 0 0 2-2V9l-5-2-2-5H6a2 2 0 0 0-2 2v16a2 2 0 0 0 2 2" fill="url(#b)" fill-opacity=".5"/><path d="M6 22h12a2 2 0 0 0 2-2V9l-5-2-2-5H6a2 2 0 0 0-2 2v16a2 2 0 0 0 2 2" fill="url(#c)" fill-opacity=".5"/><path d="M13 7.5V2l7 7h-5.5A1.5 1.5 0 0 1 13 7.5" fill="url(#d)"/><path d="M12 17.5a5.5 5.5 0 1 0-11 0 5.5 5.5 0 0 0 11 0" fill="url(#e)"/><path d="M6.5 14a.5.5 0 0 0-.5.5V17H3.5a.5.5 0 0 0 0 1H6v2.5a.5.5 0 0 0 1 0V18h2.5a.5.5 0 0 0 0-1H7v-2.5a.5.5 0 0 0-.5-.5" fill="url(#f)"/><defs><linearGradient id="a" x1="15.2" y1="2" x2="16.822" y2="18.87" gradientUnits="userSpaceOnUse"><stop stop-color="#6ce0ff"/><stop offset="1" stop-color="#4894fe"/></linearGradient><linearGradient id="d" x1="16.488" y1="4.917" x2="14.738" y2="7.833" gradientUnits="userSpaceOnUse"><stop stop-color="#9ff0f9"/><stop offset="1" stop-color="#b3e0ff"/></linearGradient><linearGradient id="e" x1="1.393" y1="14.063" x2="8.984" y2="21.95" gradientUnits="userSpaceOnUse"><stop stop-color="#52d17c"/><stop offset="1" stop-color="#22918b"/></linearGradient><linearGradient id="f" x1="4.313" y1="14.714" x2="6.46" y2="22.296" gradientUnits="userSpaceOnUse"><stop stop-color="#fff"/><stop offset="1" stop-color="#e3ffd9"/></linearGradient><radialGradient id="b" cx="0" cy="0" r="1" gradientUnits="userSpaceOnUse" gradientTransform="rotate(133.623 9.771 5.739)scale(12.562 7.41695)"><stop offset=".362" stop-color="#4a43cb"/><stop offset="1" stop-color="#4a43cb" stop-opacity="0"/></radialGradient><radialGradient id="c" cx="0" cy="0" r="1" gradientUnits="userSpaceOnUse" gradientTransform="matrix(0 8 -8.35417 0 7.333 19)"><stop offset=".535" stop-color="#4a43cb"/><stop offset="1" stop-color="#4a43cb" stop-opacity="0"/></radialGradient></defs></svg>