<svg width="24" height="24" viewBox="0 0 24 24" fill="none" xmlns="http://www.w3.org/2000/svg"><path d="M11 18.5v-3.682h1.5V18.5z" fill="#c55d5d"/><path d="M11 18.5v-3.682h1.5V18.5z" fill="url(#a)"/><path d="M14.253 17.5a3.25 3.25 0 0 1 3.245 3.066l.005.184v.5a.75.75 0 0 1-.648.743l-.102.007H6.75a.75.75 0 0 1-.743-.648L6 21.25v-.5a3.25 3.25 0 0 1 3.066-3.245l.184-.005z" fill="#d9d9d9"/><path d="M14.253 17.5a3.25 3.25 0 0 1 3.245 3.066l.005.184v.5a.75.75 0 0 1-.648.743l-.102.007H6.75a.75.75 0 0 1-.743-.648L6 21.25v-.5a3.25 3.25 0 0 1 3.066-3.245l.184-.005z" fill="url(#b)"/><path fill-rule="evenodd" clip-rule="evenodd" d="M3 5.75C3 4.784 3.784 4 4.75 4h3c.966 0 1.75.784 1.75 1.75v3a3.25 3.25 0 0 1-6.5 0zm1.75-.25a.25.25 0 0 0-.25.25v3a1.75 1.75 0 1 0 3.5 0v-3a.25.25 0 0 0-.25-.25z" fill="#d96a6a"/><path fill-rule="evenodd" clip-rule="evenodd" d="M3 5.75C3 4.784 3.784 4 4.75 4h3c.966 0 1.75.784 1.75 1.75v3a3.25 3.25 0 0 1-6.5 0zm1.75-.25a.25.25 0 0 0-.25.25v3a1.75 1.75 0 1 0 3.5 0v-3a.25.25 0 0 0-.25-.25z" fill="url(#c)"/><path fill-rule="evenodd" clip-rule="evenodd" d="M14 5.75c0-.966.784-1.75 1.75-1.75h3c.966 0 1.75.784 1.75 1.75v3a3.25 3.25 0 0 1-6.5 0zm1.75-.25a.25.25 0 0 0-.25.25v3a1.75 1.75 0 1 0 3.5 0v-3a.25.25 0 0 0-.25-.25z" fill="#d96a6a"/><path fill-rule="evenodd" clip-rule="evenodd" d="M14 5.75c0-.966.784-1.75 1.75-1.75h3c.966 0 1.75.784 1.75 1.75v3a3.25 3.25 0 0 1-6.5 0zm1.75-.25a.25.25 0 0 0-.25.25v3a1.75 1.75 0 1 0 3.5 0v-3a.25.25 0 0 0-.25-.25z" fill="url(#d)"/><path d="M8.25 2A2.25 2.25 0 0 0 6 4.25v6a5.75 5.75 0 0 0 11.5 0v-6A2.25 2.25 0 0 0 15.25 2z" fill="#000"/><path d="M8.25 2A2.25 2.25 0 0 0 6 4.25v6a5.75 5.75 0 0 0 11.5 0v-6A2.25 2.25 0 0 0 15.25 2z" fill="url(#e)"/><defs><linearGradient id="a" x1="10.25" y1="14.082" x2="16.106" y2="22.284" gradientUnits="userSpaceOnUse"><stop offset=".174" stop-color="#eb4824"/><stop offset=".563" stop-color="#ff921f" stop-opacity=".988"/><stop offset=".853" stop-color="#eb4824"/></linearGradient><linearGradient id="b" x1="38.592" y1="35.5" x2="31.535" y2="10.62" gradientUnits="userSpaceOnUse"><stop offset=".184" stop-color="#ffcd0f"/><stop offset="1" stop-color="#ff6f47"/></linearGradient><linearGradient id="c" x1="7.875" y1="7.333" x2="1.375" y2="7.333" gradientUnits="userSpaceOnUse"><stop stop-color="#eb4824"/><stop offset="1" stop-color="#ffcd0f" stop-opacity=".988"/></linearGradient><linearGradient id="d" x1="16.167" y1="7.333" x2="22.125" y2="7.333" gradientUnits="userSpaceOnUse"><stop stop-color="#eb4824"/><stop offset="1" stop-color="#ffcd0f" stop-opacity=".988"/></linearGradient><radialGradient id="e" cx="0" cy="0" r="1" gradientUnits="userSpaceOnUse" gradientTransform="rotate(228.262 12.197 3.776)scale(16.3147 17.4942)"><stop stop-color="#ff6f47"/><stop offset="1" stop-color="#ffcd0f"/></radialGradient></defs></svg>