<svg viewBox="0 0 24 24" fill="none" xmlns="http://www.w3.org/2000/svg"><path d="M17 10a7 7 0 1 1-14 0 7 7 0 0 1 14 0"/><path d="M14.843 16.368a8 8 0 1 1 1.428-1.4l4.427 4.316a1 1 0 1 1-1.396 1.432zM16 10a6 6 0 1 0-12 0 6 6 0 0 0 12 0" fill="url(#a)"/><path d="m20.783 10.213-.766-.248a1.58 1.58 0 0 1-.998-.999l-.25-.764a.302.302 0 0 0-.57 0l-.248.764a1.58 1.58 0 0 1-.984.999l-.765.248a.302.302 0 0 0 0 .57l.765.249a1.58 1.58 0 0 1 1 1.002l.248.764a.302.302 0 0 0 .57 0l.249-.764a1.58 1.58 0 0 1 .999-.999l.765-.248a.302.302 0 0 0 0-.57z" fill="url(#b)"/><path d="M13.088 6.412a2.84 2.84 0 0 0-1.347-.955l-1.378-.448a.544.544 0 0 1 0-1.025l1.378-.448A2.84 2.84 0 0 0 13.5 1.774l.011-.034.448-1.377a.544.544 0 0 1 1.027 0l.447 1.377a2.84 2.84 0 0 0 1.799 1.796l1.377.448.028.007a.544.544 0 0 1 0 1.025l-1.378.448a2.84 2.84 0 0 0-1.798 1.796l-.448 1.377-.013.034a.544.544 0 0 1-1.013-.034l-.448-1.377a2.8 2.8 0 0 0-.45-.848" fill="url(#d)"/><defs><radialGradient id="b" cx="0" cy="0" r="1" gradientUnits="userSpaceOnUse" gradientTransform="rotate(63.379 12.445 .567)scale(28.6137 22.2808)"><stop offset=".718" stop-color="#ffcd0f"/><stop offset=".991" stop-color="#e67505"/></radialGradient><radialGradient id="d" cx="0" cy="0" r="1" gradientUnits="userSpaceOnUse" gradientTransform="rotate(61.2 18.574 -12.32)scale(38.6974 30.1328)"><stop offset=".698" stop-color="#ffcd0f"/><stop offset=".991" stop-color="#e67505"/></radialGradient><linearGradient id="a" x1="3" y1="19" x2="19" y2="6" gradientUnits="userSpaceOnUse"><stop stop-color="#0094f0"/><stop offset="1" stop-color="#29c3ff"/></linearGradient></defs></svg>