<svg width="24" height="24" viewBox="0 0 24 24" fill="none" xmlns="http://www.w3.org/2000/svg"><circle cx="10.5" cy="9.5" r="6.5" fill="url(#a)"/><circle cx="10.5" cy="9.5" r="6.5" fill="url(#b)" fill-opacity=".6"/><circle cx="10.5" cy="9.5" r="6.5" fill="url(#c)" fill-opacity=".6"/><rect x="10" y="9" width="12" height="12" rx="3" fill="url(#d)"/><path fill-rule="evenodd" clip-rule="evenodd" d="M10.5 16a6.5 6.5 0 0 0 6.481-7H13a3 3 0 0 0-3 3v3.981q.248.02.5.019" fill="url(#e)"/><path fill-rule="evenodd" clip-rule="evenodd" d="M10.5 16a6.5 6.5 0 0 0 6.481-7H13a3 3 0 0 0-3 3v3.981q.248.02.5.019" fill="url(#f)"/><path d="M7.5 13.948c0 5.27-1.46 8.02-2.75 8.02-1.117 0-2.75-2.282-2.75-8.02C2 9.05 3.231 8.27 4.75 8.27c1.354 0 2.75.41 2.75 5.678" fill="url(#g)"/><path d="M7.5 13.948c0 5.27-1.46 8.02-2.75 8.02-1.117 0-2.75-2.282-2.75-8.02C2 9.05 3.231 8.27 4.75 8.27c1.354 0 2.75.41 2.75 5.678" fill="url(#h)" fill-opacity=".5"/><path d="M7.5 13.948c0 5.27-1.46 8.02-2.75 8.02-1.117 0-2.75-2.282-2.75-8.02C2 9.05 3.231 8.27 4.75 8.27c1.354 0 2.75.41 2.75 5.678" fill="url(#i)"/><path d="M7.5 13.948c0 5.27-1.46 8.02-2.75 8.02-1.117 0-2.75-2.282-2.75-8.02C2 9.05 3.231 8.27 4.75 8.27c1.354 0 2.75.41 2.75 5.678" fill="url(#j)" fill-opacity=".7"/><path d="M2.063 12.206c.27-3.35 1.37-3.936 2.687-3.936 1.186 0 2.405.314 2.689 3.936a5 5 0 0 1-2.688.767c-1 0-1.926-.284-2.688-.767" fill="#fff" fill-opacity=".15"/><path d="M5.575 2.074A.75.75 0 0 1 6 2.75c0 .745.328 1.331.732 1.932.332.494.768 1.141.768 2.068a2.75 2.75 0 1 1-5.5 0c0-.368 0-1.001.383-1.818.375-.8 1.088-1.719 2.398-2.768a.75.75 0 0 1 .794-.09" fill="url(#k)"/><defs><radialGradient id="a" cx="0" cy="0" r="1" gradientUnits="userSpaceOnUse" gradientTransform="rotate(-78.382 14.366 6.396)scale(17.5863)"><stop offset=".222" stop-color="#4e46e2"/><stop offset=".578" stop-color="#625df6"/><stop offset=".955" stop-color="#e37dff"/></radialGradient><radialGradient id="b" cx="0" cy="0" r="1" gradientUnits="userSpaceOnUse" gradientTransform="rotate(-17.281 43.635 -1.085)scale(7.09946 9.29311)"><stop offset=".566" stop-color="#251fba"/><stop offset="1" stop-color="#5e51e4" stop-opacity="0"/></radialGradient><radialGradient id="c" cx="0" cy="0" r="1" gradientUnits="userSpaceOnUse" gradientTransform="rotate(8.26 -55.135 16.554)scale(6.53056 6.67552)"><stop offset=".566" stop-color="#251fba"/><stop offset="1" stop-color="#5e51e4" stop-opacity="0"/></radialGradient><radialGradient id="d" cx="0" cy="0" r="1" gradientUnits="userSpaceOnUse" gradientTransform="rotate(42.462 -6.92 19.771)scale(14.1885 19.2719)"><stop stop-color="#c354ff"/><stop offset=".158" stop-color="#b339f0"/><stop offset=".429" stop-color="#f24a9d"/><stop offset=".749" stop-color="#ff835c"/><stop offset="1" stop-color="#ffc470"/></radialGradient><radialGradient id="h" cx="0" cy="0" r="1" gradientUnits="userSpaceOnUse" gradientTransform="rotate(81.224 -2.062 6.343)scale(13.6117 33.7531)"><stop offset=".5" stop-color="#dd3ce2" stop-opacity="0"/><stop offset="1" stop-color="#dd3ce2"/></radialGradient><radialGradient id="j" cx="0" cy="0" r="1" gradientUnits="userSpaceOnUse" gradientTransform="rotate(-68.504 7.432 1.833)scale(6.92266 13.36)"><stop offset=".169" stop-color="#02888d"/><stop offset=".26" stop-color="#02888d" stop-opacity="0"/></radialGradient><radialGradient id="k" cx="0" cy="0" r="1" gradientUnits="userSpaceOnUse" gradientTransform="rotate(108.105 1.345 4.37)scale(5.75565 6.22878)"><stop stop-color="#ff9532"/><stop offset=".251" stop-color="#ff835c"/><stop offset="1" stop-color="#f24a9d"/></radialGradient><linearGradient id="e" x1="16.313" y1="15.897" x2="11.08" y2="8.208" gradientUnits="userSpaceOnUse"><stop offset=".195" stop-color="#6d37cd"/><stop offset=".765" stop-color="#ea71ef"/></linearGradient><linearGradient id="f" x1="17.42" y1="17.705" x2="9.076" y2="6.044" gradientUnits="userSpaceOnUse"><stop offset=".195" stop-color="#7631ff"/><stop offset=".886" stop-color="#e63080"/></linearGradient><linearGradient id="g" x1=".711" y1="14.085" x2="6.872" y2="20.61" gradientUnits="userSpaceOnUse"><stop stop-color="#0fafff"/><stop offset="1" stop-color="#2764e7"/></linearGradient><linearGradient id="i" x1="9.563" y1="14.544" x2="-.062" y2="14.544" gradientUnits="userSpaceOnUse"><stop offset=".307" stop-color="#0d91e1"/><stop offset=".761" stop-color="#52b471"/></linearGradient></defs></svg>